<svg xmlns="http://www.w3.org/2000/svg" width="264.047" height="208.362"><defs><clipPath id="a"><path data-name="Rectangle 5" fill="#41b8ea" d="M0 0h264.047v205.595H0z"/></clipPath></defs><g data-name="Best Global"><path data-name="Path 271" d="M93.672 191.394a6.024 6.024 0 0 1-4.392-1.68 5.62 5.62 0 0 1-1.72-4.192 5.654 5.654 0 0 1 1.7-4.184 5.755 5.755 0 0 1 4.216-1.688 5.828 5.828 0 0 1 4.16 1.5l-.784.9a4.842 4.842 0 0 0-3.372-1.248 4.5 4.5 0 0 0-3.352 1.36 4.607 4.607 0 0 0-1.336 3.36 4.564 4.564 0 0 0 1.352 3.38 4.787 4.787 0 0 0 3.528 1.34 5 5 0 0 0 3.216-.928v-3.36h-3.456v-1.152h4.656v5.008a5.936 5.936 0 0 1-4.416 1.584Zm6.5-.192v-11.68h1.12v11.68Zm10.144-1.048a4.013 4.013 0 0 1-2.996 1.208 4.013 4.013 0 0 1-2.992-1.208 4.058 4.058 0 0 1-1.184-2.952 4.058 4.058 0 0 1 1.184-2.952 4.013 4.013 0 0 1 2.992-1.208 4.013 4.013 0 0 1 2.992 1.208 4.058 4.058 0 0 1 1.188 2.952 4.058 4.058 0 0 1-1.188 2.952Zm-5.176-.736a2.844 2.844 0 0 0 2.184.9 2.844 2.844 0 0 0 2.184-.9 3.135 3.135 0 0 0 .836-2.216 3.135 3.135 0 0 0-.84-2.216 2.844 2.844 0 0 0-2.184-.9 2.844 2.844 0 0 0-2.184.9 3.135 3.135 0 0 0-.836 2.216 3.135 3.135 0 0 0 .836 2.216Zm12.116 1.944a3.591 3.591 0 0 1-2.784-1.136v.976h-1.12v-11.68h1.12v4.656a3.591 3.591 0 0 1 2.784-1.136 3.827 3.827 0 0 1 2.9 1.208 4.133 4.133 0 0 1 1.144 2.952 4.133 4.133 0 0 1-1.14 2.952 3.827 3.827 0 0 1-2.904 1.208Zm-.048-1.04a2.739 2.739 0 0 0 2.12-.9 3.169 3.169 0 0 0 .824-2.22 3.169 3.169 0 0 0-.824-2.216 2.739 2.739 0 0 0-2.12-.9 3.246 3.246 0 0 0-1.632.4 3 3 0 0 0-1.1 1.056v3.328a3 3 0 0 0 1.1 1.056 3.246 3.246 0 0 0 1.632.396Zm9.328 1.04a3.827 3.827 0 0 1-2.9-1.208 4.133 4.133 0 0 1-1.148-2.952 4.133 4.133 0 0 1 1.144-2.952 3.827 3.827 0 0 1 2.9-1.208 3.591 3.591 0 0 1 2.788 1.136v-.976h1.12v8h-1.12v-.976a3.591 3.591 0 0 1-2.784 1.136Zm.048-1.04a3.246 3.246 0 0 0 1.632-.4 3 3 0 0 0 1.1-1.056v-3.328a3 3 0 0 0-1.1-1.056 3.246 3.246 0 0 0-1.632-.4 2.739 2.739 0 0 0-2.12.9 3.169 3.169 0 0 0-.824 2.22 3.169 3.169 0 0 0 .824 2.216 2.739 2.739 0 0 0 2.12.904Zm6.384.88v-11.68h1.12v11.68Zm7.552 0v-11.36h6.512v1.152h-5.3v3.792h4.192v1.152h-4.188v5.264Zm13.408-1.048a4.013 4.013 0 0 1-2.992 1.208 4.013 4.013 0 0 1-2.992-1.208 4.058 4.058 0 0 1-1.184-2.952 4.058 4.058 0 0 1 1.184-2.952 4.013 4.013 0 0 1 2.992-1.208 4.013 4.013 0 0 1 2.992 1.208 4.058 4.058 0 0 1 1.184 2.952 4.058 4.058 0 0 1-1.184 2.952Zm-5.176-.736a2.844 2.844 0 0 0 2.184.9 2.844 2.844 0 0 0 2.184-.9 3.135 3.135 0 0 0 .84-2.216 3.135 3.135 0 0 0-.84-2.216 2.844 2.844 0 0 0-2.184-.9 2.844 2.844 0 0 0-2.184.9 3.135 3.135 0 0 0-.84 2.216 3.135 3.135 0 0 0 .84 2.216Zm8.216 1.784v-8h1.12v1.248a2.375 2.375 0 0 1 .9-.936 2.481 2.481 0 0 1 1.344-.392 2.9 2.9 0 0 1 .656.064l-.148 1.152a2.282 2.282 0 0 0-.688-.1 1.95 1.95 0 0 0-1.264.472 2.446 2.446 0 0 0-.8 1.272v5.22Zm8.208.16a3.923 3.923 0 0 1-2.976-1.192 4.134 4.134 0 0 1-1.136-2.968 4.079 4.079 0 0 1 1.168-2.96 3.974 3.974 0 0 1 2.976-1.2 3.618 3.618 0 0 1 2.692 1.088 4.034 4.034 0 0 1 1.072 2.96v.3h-6.756a2.849 2.849 0 0 0 .832 2.088 2.867 2.867 0 0 0 2.128.84 2.985 2.985 0 0 0 1.576-.376 3.2 3.2 0 0 0 1.064-1.128l.912.592a3.819 3.819 0 0 1-3.552 1.956Zm-2.864-4.96h5.488a2.68 2.68 0 0 0-.88-1.7 2.594 2.594 0 0 0-1.76-.624 2.918 2.918 0 0 0-1.848.632 2.673 2.673 0 0 0-1 1.692Zm13.36 4.8-2.608-3.216-2.608 3.216h-1.424l3.328-4.1-2.992-3.9h1.36l2.32 3.024 2.336-3.024h1.376l-3.008 3.92 3.328 4.08Zm-71.408 17 5.056-11.36h.976l5.072 11.36h-1.28l-1.588-3.536h-5.42l-1.568 3.536Zm5.52-9.648-2.208 4.976h4.432Zm13.632 9.648-2.128-6.1-2.112 6.1h-.928l-2.736-8h1.152l2.064 6.08 2.128-6.08h.864l2.112 6.08 2.08-6.08h1.168l-2.736 8Zm8.656.16a3.827 3.827 0 0 1-2.9-1.208 4.133 4.133 0 0 1-1.148-2.952 4.133 4.133 0 0 1 1.144-2.952 3.827 3.827 0 0 1 2.904-1.208 3.591 3.591 0 0 1 2.784 1.136v-.976h1.12v8h-1.12v-.976a3.591 3.591 0 0 1-2.784 1.136Zm.048-1.04a3.246 3.246 0 0 0 1.632-.4 3 3 0 0 0 1.1-1.056v-3.328a3 3 0 0 0-1.1-1.056 3.246 3.246 0 0 0-1.632-.4 2.739 2.739 0 0 0-2.12.9 3.169 3.169 0 0 0-.824 2.22 3.169 3.169 0 0 0 .824 2.216 2.739 2.739 0 0 0 2.12.904Zm6.608.88v-8h1.12v1.248a2.375 2.375 0 0 1 .9-.936 2.481 2.481 0 0 1 1.344-.392 2.9 2.9 0 0 1 .656.064l-.148 1.152a2.282 2.282 0 0 0-.688-.1 1.95 1.95 0 0 0-1.264.472 2.446 2.446 0 0 0-.8 1.272v5.22Zm8.7.16a3.827 3.827 0 0 1-2.9-1.208 4.133 4.133 0 0 1-1.144-2.952 4.133 4.133 0 0 1 1.144-2.952 3.827 3.827 0 0 1 2.9-1.208 3.591 3.591 0 0 1 2.784 1.136v-4.656h1.12v11.68h-1.12v-.976a3.591 3.591 0 0 1-2.78 1.136Zm.048-1.04a3.246 3.246 0 0 0 1.632-.4 3 3 0 0 0 1.1-1.056v-3.328a3 3 0 0 0-1.1-1.056 3.246 3.246 0 0 0-1.632-.4 2.739 2.739 0 0 0-2.12.9 3.169 3.169 0 0 0-.82 2.22 3.169 3.169 0 0 0 .824 2.216 2.739 2.739 0 0 0 2.12.904Zm8.944 1.04a3.683 3.683 0 0 1-1.96-.5 2.63 2.63 0 0 1-1.144-1.464l1.008-.416a1.742 1.742 0 0 0 .792 1.008 2.476 2.476 0 0 0 1.32.368 1.81 1.81 0 0 0 1.112-.328 1.136 1.136 0 0 0 .1-1.712 3.161 3.161 0 0 0-1.16-.6l-.864-.272a2.3 2.3 0 0 1-1.92-2.272 1.847 1.847 0 0 1 .76-1.552 3.075 3.075 0 0 1 1.912-.576 2.733 2.733 0 0 1 2.592 1.408l-.9.56a2 2 0 0 0-1.76-.976 1.774 1.774 0 0 0-1.04.312.921.921 0 0 0-.448.776q0 .9 1.248 1.3l.912.288q2.128.672 2.128 2.32a2.11 2.11 0 0 1-.744 1.72 2.949 2.949 0 0 1-1.94.608Z" fill="#a5a5a5"/><path data-name="Path 272" d="M60.355 84V64.83h7.02a5.528 5.528 0 0 1 4.05 1.634 5.334 5.334 0 0 1 1.647 3.929 4.4 4.4 0 0 1-1.512 3.429 4.724 4.724 0 0 1 2.84 4.535 5.33 5.33 0 0 1-1.7 4.023A5.906 5.906 0 0 1 68.455 84Zm3.915-3.591h3.915a2.463 2.463 0 0 0 1.755-.609 2.066 2.066 0 0 0 .648-1.58 2.109 2.109 0 0 0-.648-1.593 2.431 2.431 0 0 0-1.755-.621H64.27Zm0-7.722H67a2.254 2.254 0 0 0 1.647-.607 2.045 2.045 0 0 0 .621-1.526 2.08 2.08 0 0 0-.634-1.526A2.211 2.211 0 0 0 67 68.394h-2.73ZM83.413 84.3a7.12 7.12 0 0 1-5.113-1.947 6.728 6.728 0 0 1-2.039-5.1 6.807 6.807 0 0 1 2.025-5.036 6.909 6.909 0 0 1 5.073-2.017 6.768 6.768 0 0 1 4.725 1.741A6.284 6.284 0 0 1 90 76.845a10.228 10.228 0 0 1-.054 1.269h-10.1a2.878 2.878 0 0 0 1.174 2.065 3.974 3.974 0 0 0 2.417.743 3.855 3.855 0 0 0 3.483-1.7l2.754 2.052a7.093 7.093 0 0 1-6.261 3.026Zm-3.429-8.7H86.3a2.72 2.72 0 0 0-1.094-1.755 3.334 3.334 0 0 0-1.958-.594 3.829 3.829 0 0 0-2.079.594 2.609 2.609 0 0 0-1.185 1.755Zm17.28 8.7q-3.834 0-5.564-2.6l2.538-2.16a3.305 3.305 0 0 0 3.024 1.566 2.119 2.119 0 0 0 1.053-.243.786.786 0 0 0 .432-.729.871.871 0 0 0-.365-.716 4.581 4.581 0 0 0-1.444-.581l-1-.243a5.33 5.33 0 0 1-2.818-1.614 3.831 3.831 0 0 1-.9-2.7 3.735 3.735 0 0 1 1.472-2.957 5.634 5.634 0 0 1 3.6-1.12 5.3 5.3 0 0 1 4.671 2.268l-2.43 1.971a2.842 2.842 0 0 0-2.295-1.188 1.8 1.8 0 0 0-.945.243.752.752 0 0 0-.4.675q0 .81 1.323 1.161l1.269.378q3.915 1.053 3.915 4.185a3.968 3.968 0 0 1-1.464 3.159 5.465 5.465 0 0 1-3.672 1.245Zm14.661-.138a5.6 5.6 0 0 1-3.807-1.242 4.565 4.565 0 0 1-1.431-3.645V73.74h-3.267V70.5h3.267v-4.05h3.7v4.05h4.077v3.24h-4.077v4.806a2.486 2.486 0 0 0 .5 1.741 2.05 2.05 0 0 0 1.552.526 3.911 3.911 0 0 0 1.861-.458l1.107 3.024a7.265 7.265 0 0 1-3.482.783Zm21.222.162a10.3 10.3 0 0 1-7.425-2.849 9.389 9.389 0 0 1-2.97-7.061 9.613 9.613 0 0 1 2.848-7.033 9.738 9.738 0 0 1 7.223-2.875 10.159 10.159 0 0 1 7.722 3.132l-2.727 2.7a6.685 6.685 0 0 0-5-2.052 5.855 5.855 0 0 0-4.414 1.782 6.035 6.035 0 0 0-1.71 4.347 5.924 5.924 0 0 0 1.755 4.385 6.341 6.341 0 0 0 4.671 1.744 6.521 6.521 0 0 0 4.023-1.026V76.2h-4.131v-3.672h7.938v8.991a8.228 8.228 0 0 1-3.361 2.076 13.4 13.4 0 0 1-4.442.729ZM143.974 84V64.29h3.7V84Zm18.5-1.742a6.911 6.911 0 0 1-5.027 2.042 6.911 6.911 0 0 1-5.022-2.039 6.741 6.741 0 0 1-2.079-5.011 6.754 6.754 0 0 1 2.079-5 6.888 6.888 0 0 1 5.022-2.05 6.888 6.888 0 0 1 5.022 2.052 6.754 6.754 0 0 1 2.079 5 6.741 6.741 0 0 1-2.079 5.006Zm-5.027-1.417a3.155 3.155 0 0 0 2.389-1.013 3.6 3.6 0 0 0 .964-2.578 3.6 3.6 0 0 0-.958-2.579 3.155 3.155 0 0 0-2.389-1.012 3.186 3.186 0 0 0-2.417 1.012 3.6 3.6 0 0 0-.958 2.579 3.6 3.6 0 0 0 .958 2.578 3.186 3.186 0 0 0 2.411 1.013Zm16.929 3.459a4.671 4.671 0 0 1-3.456-1.3v1h-3.7V64.29h3.7v7.182a4.785 4.785 0 0 1 3.456-1.272 6.187 6.187 0 0 1 4.792 2.066 7.148 7.148 0 0 1 1.877 4.984 7.148 7.148 0 0 1-1.876 4.981 6.187 6.187 0 0 1-4.793 2.069Zm-.54-3.375a3.129 3.129 0 0 0 2.457-1.066 3.789 3.789 0 0 0 .945-2.605 3.789 3.789 0 0 0-.945-2.606 3.129 3.129 0 0 0-2.457-1.066 3.441 3.441 0 0 0-2.916 1.454v4.4a3.421 3.421 0 0 0 2.916 1.486Zm15.742 3.375a6.187 6.187 0 0 1-4.792-2.066 7.148 7.148 0 0 1-1.877-4.984 7.148 7.148 0 0 1 1.877-4.982 6.187 6.187 0 0 1 4.792-2.068 4.785 4.785 0 0 1 3.456 1.269V70.5h3.7V84h-3.7v-1a4.671 4.671 0 0 1-3.456 1.3Zm.54-3.375a3.421 3.421 0 0 0 2.916-1.485v-4.4a3.441 3.441 0 0 0-2.916-1.458 3.1 3.1 0 0 0-2.43 1.066 3.789 3.789 0 0 0-.945 2.606 3.789 3.789 0 0 0 .945 2.605 3.1 3.1 0 0 0 2.43 1.063ZM200.3 84V64.29h3.7V84ZM65.8 113l-7.915-19.17h4.239l5.427 13.311L72.9 93.83h4.32L69.279 113Zm16.983.3a6.187 6.187 0 0 1-4.792-2.066 7.148 7.148 0 0 1-1.881-4.984 7.148 7.148 0 0 1 1.877-4.982 6.187 6.187 0 0 1 4.792-2.068 4.785 4.785 0 0 1 3.456 1.269V99.5h3.7V113h-3.7v-1a4.671 4.671 0 0 1-3.456 1.3Zm.54-3.375a3.421 3.421 0 0 0 2.916-1.485v-4.4a3.441 3.441 0 0 0-2.916-1.458 3.1 3.1 0 0 0-2.43 1.067 3.789 3.789 0 0 0-.945 2.605 3.789 3.789 0 0 0 .945 2.605 3.1 3.1 0 0 0 2.426 1.063ZM93.5 113V93.29h3.7V113Zm19.575-13.5V113h-3.7v-1.08a4.413 4.413 0 0 1-3.322 1.38 5.074 5.074 0 0 1-4.01-1.634 6.3 6.3 0 0 1-1.443-4.336V99.5h3.7v7.209q0 3.213 2.538 3.213a2.952 2.952 0 0 0 2.538-1.539V99.5Zm9.855 13.8a7.12 7.12 0 0 1-5.117-1.944 6.728 6.728 0 0 1-2.039-5.1 6.807 6.807 0 0 1 2.026-5.041 6.909 6.909 0 0 1 5.074-2.015 6.768 6.768 0 0 1 4.726 1.744 6.284 6.284 0 0 1 1.917 4.9 10.228 10.228 0 0 1-.054 1.269h-10.1a2.878 2.878 0 0 0 1.174 2.066 3.974 3.974 0 0 0 2.417.742 3.855 3.855 0 0 0 3.483-1.7l2.754 2.052a7.093 7.093 0 0 1-6.263 3.027Zm-3.43-8.7h6.318a2.72 2.72 0 0 0-1.094-1.755 3.334 3.334 0 0 0-1.957-.594 3.829 3.829 0 0 0-2.079.594 2.609 2.609 0 0 0-1.188 1.755Zm19.25 8.4V93.83h11.664v3.726h-7.749v3.969h6.075v3.726h-6.075V113Zm24.192-1.742a7.205 7.205 0 0 1-10.044 0 6.741 6.741 0 0 1-2.079-5.008 6.754 6.754 0 0 1 2.079-5 7.171 7.171 0 0 1 10.044 0 6.754 6.754 0 0 1 2.079 5 6.741 6.741 0 0 1-2.079 5.008Zm-5.022-1.417a3.155 3.155 0 0 0 2.389-1.013 3.6 3.6 0 0 0 .958-2.578 3.6 3.6 0 0 0-.958-2.579 3.358 3.358 0 0 0-4.806 0 3.6 3.6 0 0 0-.958 2.579 3.6 3.6 0 0 0 .958 2.578 3.186 3.186 0 0 0 2.417 1.013Zm9.774 3.159V99.5h3.7v1.62a2.91 2.91 0 0 1 1.229-1.269 3.706 3.706 0 0 1 1.9-.513 4.616 4.616 0 0 1 1.566.243l-.567 3.483a3.024 3.024 0 0 0-1.132-.164 3.235 3.235 0 0 0-3 1.512V113Zm16.306.3a7.12 7.12 0 0 1-5.117-1.944 6.728 6.728 0 0 1-2.039-5.1 6.807 6.807 0 0 1 2.025-5.035 6.909 6.909 0 0 1 5.079-2.021 6.768 6.768 0 0 1 4.725 1.742 6.284 6.284 0 0 1 1.917 4.9 10.228 10.228 0 0 1-.054 1.269h-10.1a2.878 2.878 0 0 0 1.175 2.066 3.974 3.974 0 0 0 2.416.742 3.855 3.855 0 0 0 3.483-1.7l2.754 2.052A7.093 7.093 0 0 1 184 113.3Zm-3.427-8.7h6.318a2.72 2.72 0 0 0-1.091-1.752 3.334 3.334 0 0 0-1.958-.594 3.829 3.829 0 0 0-2.079.594 2.609 2.609 0 0 0-1.19 1.752Zm21.114 8.4-3.132-3.969-3.132 3.969h-4.455l5.238-6.615L191.1 99.5h4.374l3.051 4.131 3.054-4.131h4.4l-5.1 6.885 5.236 6.615ZM92.526 142v-19.17h7.02a5.528 5.528 0 0 1 4.05 1.634 5.334 5.334 0 0 1 1.647 3.928 4.4 4.4 0 0 1-1.512 3.429 4.724 4.724 0 0 1 2.835 4.536 5.33 5.33 0 0 1-1.7 4.023 5.906 5.906 0 0 1-4.24 1.62Zm3.915-3.591h3.915a2.463 2.463 0 0 0 1.755-.608 2.066 2.066 0 0 0 .648-1.579 2.109 2.109 0 0 0-.648-1.593 2.431 2.431 0 0 0-1.755-.621h-3.915Zm0-7.722h2.727a2.254 2.254 0 0 0 1.647-.608 2.045 2.045 0 0 0 .621-1.525 2.08 2.08 0 0 0-.634-1.526 2.211 2.211 0 0 0-1.633-.634h-2.727ZM109.158 142v-13.5h3.7v1.62a2.91 2.91 0 0 1 1.229-1.269 3.706 3.706 0 0 1 1.9-.513 4.616 4.616 0 0 1 1.566.243l-.567 3.483a3.024 3.024 0 0 0-1.134-.162 3.235 3.235 0 0 0-3 1.512V142Zm21.249-1.742a6.911 6.911 0 0 1-5.022 2.042 6.911 6.911 0 0 1-5.022-2.039 6.741 6.741 0 0 1-2.079-5.008 6.754 6.754 0 0 1 2.079-5 6.888 6.888 0 0 1 5.022-2.053 6.888 6.888 0 0 1 5.022 2.052 6.754 6.754 0 0 1 2.079 5 6.741 6.741 0 0 1-2.079 5.006Zm-5.022-1.417a3.155 3.155 0 0 0 2.39-1.013 3.6 3.6 0 0 0 .958-2.578 3.6 3.6 0 0 0-.958-2.578 3.155 3.155 0 0 0-2.39-1.013 3.186 3.186 0 0 0-2.416 1.013 3.6 3.6 0 0 0-.959 2.578 3.6 3.6 0 0 0 .958 2.578 3.186 3.186 0 0 0 2.417 1.013ZM144.366 142l-5.508-6.21V142h-3.7v-19.71h3.7v11.178l4.374-4.968h4.455l-5.346 6.075 6.588 7.425Zm11.259.3a7.12 7.12 0 0 1-5.117-1.944 6.728 6.728 0 0 1-2.039-5.1 6.807 6.807 0 0 1 2.031-5.041 6.909 6.909 0 0 1 5.071-2.015 6.768 6.768 0 0 1 4.729 1.744 6.284 6.284 0 0 1 1.917 4.9 10.228 10.228 0 0 1-.054 1.269h-10.1a2.878 2.878 0 0 0 1.174 2.066 3.974 3.974 0 0 0 2.417.743 3.855 3.855 0 0 0 3.483-1.7l2.754 2.052a7.093 7.093 0 0 1-6.266 3.026Zm-3.425-8.7h6.318a2.72 2.72 0 0 0-1.094-1.755 3.334 3.334 0 0 0-1.958-.594 3.829 3.829 0 0 0-2.079.594 2.609 2.609 0 0 0-1.187 1.755Zm12.74 8.4v-13.5h3.7v1.62a2.91 2.91 0 0 1 1.229-1.269 3.706 3.706 0 0 1 1.9-.513 4.616 4.616 0 0 1 1.566.243l-.567 3.483a3.024 3.024 0 0 0-1.134-.162 3.235 3.235 0 0 0-3 1.512V142Z" fill="#606060"/><g data-name="Group 123"><g data-name="Group 11" clip-path="url(#a)" fill="#41b8ea" fill-rule="evenodd"><path data-name="Path 13" d="m251.262 86.36 3.917-2.1a13.521 13.521 0 0 0 7.2-13.053l-.319-4.432-3.919 2.1a13.521 13.521 0 0 0-7.2 13.045Z"/><path data-name="Path 14" d="m245.917 122.329 4.4-.7a13.482 13.482 0 0 0 11.078-9.973l1.155-4.307-4.407.7a13.478 13.478 0 0 0-11.07 9.972Z"/><path data-name="Path 15" d="m228.936 153.571 4.376.851a13.487 13.487 0 0 0 13.822-5.582l2.561-3.655-4.385-.846a13.489 13.489 0 0 0-13.81 5.576Z"/><path data-name="Path 16" d="m202.368 177.018 3.732 2.39a13.5 13.5 0 0 0 14.907-.1l3.715-2.442-3.751-2.395a13.5 13.5 0 0 0-14.9.1Z"/><path data-name="Path 17" d="m243.676 52.081-2.115-3.858a13.519 13.519 0 0 0-13.131-7.057l-4.388.363 2.123 3.861a13.526 13.526 0 0 0 13.124 7.05Z"/><path data-name="Path 18" d="m250.456 86.311-.731-4.325a13.489 13.489 0 0 0-10.072-10.984l-4.253-1.1.737 4.333a13.488 13.488 0 0 0 10.069 10.978Z"/><path data-name="Path 19" d="m244.9 121.954.862-4.3a13.493 13.493 0 0 0-5.486-13.858l-3.582-2.549-.859 4.319a13.5 13.5 0 0 0 5.486 13.843Z"/><path data-name="Path 20" d="m228.213 152.952 2.245-3.8a13.49 13.49 0 0 0-.619-14.888l-2.545-3.6-2.245 3.8a13.5 13.5 0 0 0 .62 14.879Z"/><path data-name="Path 21" d="m201.567 176.483 3.488-2.729a13.486 13.486 0 0 0 4.855-14.091l-1.073-4.3-3.49 2.739a13.492 13.492 0 0 0-4.848 14.082Z"/><path data-name="Path 22" d="m236.723 35.678 2.366-3.718a13.494 13.494 0 0 0-.133-14.9l-2.433-3.678-2.363 3.727a13.512 13.512 0 0 0 .135 14.892Z"/><path data-name="Path 23" d="m249.279 68.809 3.517-2.69a13.49 13.49 0 0 0 4.99-14.046l-1.03-4.314-3.523 2.704a13.514 13.514 0 0 0-4.983 14.034Z"/><path data-name="Path 24" d="m250.219 104.359 4.21-1.434a13.48 13.48 0 0 0 9.216-11.719l.4-4.432-4.215 1.44a13.482 13.482 0 0 0-9.208 11.711Z"/><path data-name="Path 25" d="m238.614 138.77 4.456.13a13.488 13.488 0 0 0 12.734-7.747l1.937-4.024-4.466-.125a13.481 13.481 0 0 0-12.724 7.746Z"/><path data-name="Path 26" d="m216.608 166.605 4.146 1.612a13.566 13.566 0 0 0 14.595-3.034l3.161-3.134-4.152-1.612a13.565 13.565 0 0 0-14.586 3.037Z"/><path data-name="Path 27" d="m235.97 36.108-2.744-3.445a13.486 13.486 0 0 0-14.139-4.72l-4.275 1.107 2.758 3.453a13.485 13.485 0 0 0 14.134 4.714Z"/><path data-name="Path 28" d="m248.603 68.888-1.48-4.138a13.494 13.494 0 0 0-11.839-9.046l-4.385-.34 1.484 4.143a13.489 13.489 0 0 0 11.837 9.04Z"/><path data-name="Path 29" d="m249.227 104.164.079-4.381a13.49 13.49 0 0 0-7.876-12.653l-3.968-1.861-.082 4.386a13.474 13.474 0 0 0 7.874 12.648Z"/><path data-name="Path 30" d="m237.924 138.312 1.531-4.106a13.513 13.513 0 0 0-3.246-14.55l-3.132-3.07-1.533 4.114a13.512 13.512 0 0 0 3.248 14.544Z"/><path data-name="Path 31" d="m216.072 165.946 2.848-3.368a13.511 13.511 0 0 0 1.874-14.788l-1.919-3.975-2.851 3.377a13.52 13.52 0 0 0-1.869 14.777Z"/><path data-name="Path 32" d="m244.499 51.783 2.968-3.269A13.5 13.5 0 0 0 249.86 33.8l-1.777-4.043-2.97 3.275a13.5 13.5 0 0 0-2.387 14.7Z"/><path data-name="Path 33" d="m229.25 26.051-.657-4.668a11.327 11.327 0 0 0-8.222-9.449l-4.534-1.3.661 4.673a11.34 11.34 0 0 0 8.219 9.443Z"/><path data-name="Path 34" d="m12.786 86.358-3.917-2.1a13.526 13.526 0 0 1-7.2-13.053l.32-4.431 3.919 2.1a13.525 13.525 0 0 1 7.194 13.046Z"/><path data-name="Path 35" d="m18.127 122.328-4.4-.7a13.479 13.479 0 0 1-11.073-9.971l-1.156-4.307 4.409.7a13.48 13.48 0 0 1 11.068 9.972Z"/><path data-name="Path 36" d="m35.113 153.57-4.377.851a13.479 13.479 0 0 1-13.82-5.582l-2.562-3.656 4.385-.845a13.491 13.491 0 0 1 13.81 5.577Z"/><path data-name="Path 37" d="m61.679 177.018-3.731 2.389a13.5 13.5 0 0 1-14.908-.1l-3.714-2.442 3.751-2.394a13.494 13.494 0 0 1 14.9.1Z"/><path data-name="Path 38" d="m20.372 52.081 2.115-3.858a13.512 13.512 0 0 1 13.131-7.062l4.387.362-2.122 3.858a13.528 13.528 0 0 1-13.123 7.05Z"/><path data-name="Path 39" d="m13.592 86.309.731-4.324a13.487 13.487 0 0 1 10.073-10.983l4.252-1.1-.737 4.334A13.491 13.491 0 0 1 17.84 85.212Z"/><path data-name="Path 40" d="m19.148 121.952-.862-4.3a13.491 13.491 0 0 1 5.484-13.861l3.584-2.551.859 4.319a13.5 13.5 0 0 1-5.488 13.844Z"/><path data-name="Path 41" d="m35.834 152.951-2.245-3.794a13.492 13.492 0 0 1 .617-14.889l2.547-3.6 2.243 3.8a13.5 13.5 0 0 1-.619 14.879Z"/><path data-name="Path 42" d="m62.48 176.481-3.486-2.729a13.484 13.484 0 0 1-4.855-14.091l1.071-4.3 3.493 2.737a13.5 13.5 0 0 1 4.847 14.083Z"/><path data-name="Path 43" d="m27.323 35.677-2.363-3.718a13.5 13.5 0 0 1 .13-14.905l2.434-3.678 2.366 3.728a13.511 13.511 0 0 1-.136 14.891Z"/><path data-name="Path 44" d="m14.769 68.808-3.513-2.689a13.493 13.493 0 0 1-5-14.048l1.031-4.314 3.52 2.706a13.512 13.512 0 0 1 4.982 14.034Z"/><path data-name="Path 45" d="m13.83 104.357-4.212-1.433A13.481 13.481 0 0 1 .4 91.205L0 86.773l4.217 1.44a13.477 13.477 0 0 1 9.207 11.711Z"/><path data-name="Path 46" d="m25.433 138.77-4.455.128a13.492 13.492 0 0 1-12.734-7.747l-1.937-4.024 4.468-.125a13.484 13.484 0 0 1 12.724 7.743Z"/><path data-name="Path 47" d="m47.436 166.605-4.146 1.61a13.565 13.565 0 0 1-14.595-3.034l-3.159-3.132 4.153-1.613a13.568 13.568 0 0 1 14.585 3.037Z"/><path data-name="Path 48" d="m28.076 36.107 2.744-3.445a13.485 13.485 0 0 1 14.138-4.72l4.276 1.108-2.759 3.451a13.479 13.479 0 0 1-14.132 4.714Z"/><path data-name="Path 49" d="m15.446 68.887 1.484-4.138a13.494 13.494 0 0 1 11.839-9.046l4.385-.34-1.484 4.143a13.5 13.5 0 0 1-11.839 9.041Z"/><path data-name="Path 50" d="m14.821 104.162-.079-4.381a13.487 13.487 0 0 1 7.876-12.652l3.968-1.863.082 4.388a13.474 13.474 0 0 1-7.876 12.646Z"/><path data-name="Path 51" d="m26.124 138.313-1.533-4.107a13.515 13.515 0 0 1 3.245-14.551l3.132-3.07 1.533 4.114a13.511 13.511 0 0 1-3.249 14.544Z"/><path data-name="Path 52" d="m47.977 165.946-2.848-3.368a13.511 13.511 0 0 1-1.877-14.788l1.921-3.975 2.85 3.377a13.521 13.521 0 0 1 1.87 14.777Z"/><path data-name="Path 53" d="m19.548 51.782-2.967-3.269a13.5 13.5 0 0 1-2.395-14.714l1.779-4.045 2.97 3.275a13.5 13.5 0 0 1 2.387 14.7Z"/><path data-name="Path 54" d="m34.796 26.05.658-4.668a11.33 11.33 0 0 1 8.223-9.448l4.535-1.3-.663 4.674a11.334 11.334 0 0 1-8.219 9.441Z"/></g></g><g data-name="Group 142"><path data-name="Path 80368" d="M79.162 34v-3.564H71.4v-2.442l8.1-9.614h2.684v9.284h2.046v2.772h-2.054V34Zm-4.07-6.336h4.07v-4.818ZM93.814 34l-2.552-3.234L88.71 34h-3.63l4.268-5.39L85.19 23h3.564l2.486 3.366L93.726 23h3.586l-4.158 5.61L97.422 34Zm13.266 0-4.862-15.62h3.366l3.016 10.384 3.232-10.384h2.794l3.212 10.384 3.036-10.384h3.388L119.4 34h-2.86l-3.3-10.736L109.94 34Zm19.12 0V18.38h3.19V34Zm20.612 0h-2.75l-8.008-10.186V34h-3.19V18.38h2.75l8.008 10.186V18.38h3.19Zm17.424 0h-2.75l-8.008-10.186V34h-3.19V18.38h2.75l8.008 10.186V18.38h3.19Zm3.476 0V18.38h9.724v3.036H170.9v3.212h5.214v3.036H170.9v3.3h6.534V34Zm12.5 0V18.38h5.984a4.708 4.708 0 0 1 3.465 1.32 4.458 4.458 0 0 1 1.331 3.3 4 4 0 0 1-3.212 4.07l5.606 6.93h-3.85l-5.368-6.578h-.77V34Zm3.19-9.306h2.42a2.209 2.209 0 0 0 1.463-.451A1.533 1.533 0 0 0 187.82 23a1.533 1.533 0 0 0-.539-1.243 2.209 2.209 0 0 0-1.463-.451H183.4Z" fill="#606060"/><g data-name="Group 141"><g data-name="Group 77" fill="#606060"><path data-name="Path 56" d="m138.911 0-1.29 3.969h-4.171l3.375 2.452-1.29 3.967 3.376-2.452 3.375 2.452-1.29-3.967 3.375-2.452H140.2Z"/><path data-name="Path 57" d="m125.686 0-1.29 3.969h-4.172l3.372 2.451-1.289 3.967 3.375-2.452 3.375 2.452-1.284-3.967 3.375-2.452h-4.172Z"/><path data-name="Path 58" d="m112.461 0-1.29 3.969H107l3.375 2.452-1.289 3.967 3.375-2.452 3.375 2.452-1.29-3.967 3.375-2.452h-4.169Z"/><path data-name="Path 61" d="m152.136 0-1.289 3.969h-4.172l3.375 2.452-1.289 3.967 3.375-2.452 3.375 2.452-1.289-3.968 3.375-2.452h-4.172Z"/></g></g></g></g></svg>