<svg xmlns="http://www.w3.org/2000/svg" width="264.047" height="207.042"><defs><clipPath id="a"><path data-name="Rectangle 7" fill="#41b8ea" d="M0 0h264.047v207.042H0z"/></clipPath></defs><g data-name="Best CFD Broker"><path data-name="Path 1662" d="M92.06 34 87.2 18.38h3.364l3.014 10.384 3.234-10.384h2.794l3.212 10.384 3.036-10.384h3.388L104.38 34h-2.86l-3.3-10.736L94.92 34Zm19.118 0V18.38h3.19V34Zm20.614 0h-2.75l-8.008-10.186V34h-3.19V18.38h2.75l8.006 10.186V18.38h3.19Zm17.424 0h-2.75l-8.008-10.186V34h-3.19V18.38h2.75l8.008 10.186V18.38h3.19Zm3.476 0V18.38h9.724v3.036h-6.534v3.212h5.218v3.036h-5.218v3.3h6.534V34Zm12.5 0V18.38h5.984a4.708 4.708 0 0 1 3.465 1.32 4.458 4.458 0 0 1 1.327 3.3 4 4 0 0 1-3.212 4.07l5.61 6.93h-3.85l-5.368-6.578h-.77V34Zm3.19-9.306h2.418a2.209 2.209 0 0 0 1.463-.451A1.533 1.533 0 0 0 172.8 23a1.533 1.533 0 0 0-.539-1.243 2.209 2.209 0 0 0-1.463-.451h-2.42Z" fill="#606060"/><g data-name="Group 125"><g data-name="Group 77"><path data-name="Path 58" d="m132.461 0-1.29 3.969H127l3.375 2.452-1.289 3.967 3.375-2.452 3.375 2.452-1.29-3.967 3.375-2.452h-4.169Z" fill="#606060"/></g></g><g data-name="Group 16" clip-path="url(#a)" fill="#41b8ea" fill-rule="evenodd"><path data-name="Path 62" d="m251.262 86.36 3.917-2.1a13.521 13.521 0 0 0 7.2-13.053l-.319-4.432-3.919 2.1a13.521 13.521 0 0 0-7.2 13.045Z"/><path data-name="Path 63" d="m245.917 122.329 4.4-.7a13.482 13.482 0 0 0 11.078-9.973l1.155-4.307-4.407.7a13.478 13.478 0 0 0-11.07 9.972Z"/><path data-name="Path 64" d="m228.936 153.571 4.376.851a13.487 13.487 0 0 0 13.822-5.582l2.561-3.655-4.385-.846a13.489 13.489 0 0 0-13.81 5.576Z"/><path data-name="Path 65" d="m202.368 177.018 3.732 2.39a13.5 13.5 0 0 0 14.907-.1l3.715-2.442-3.751-2.395a13.5 13.5 0 0 0-14.9.1Z"/><path data-name="Path 66" d="m243.676 52.081-2.115-3.858a13.519 13.519 0 0 0-13.131-7.057l-4.388.363 2.123 3.861a13.526 13.526 0 0 0 13.124 7.05Z"/><path data-name="Path 67" d="m250.456 86.311-.731-4.325a13.489 13.489 0 0 0-10.072-10.984l-4.253-1.1.737 4.333a13.488 13.488 0 0 0 10.069 10.978Z"/><path data-name="Path 68" d="m244.9 121.954.862-4.3a13.493 13.493 0 0 0-5.486-13.858l-3.582-2.549-.859 4.319a13.5 13.5 0 0 0 5.486 13.843Z"/><path data-name="Path 69" d="m228.213 152.952 2.245-3.8a13.49 13.49 0 0 0-.619-14.888l-2.545-3.6-2.245 3.8a13.5 13.5 0 0 0 .62 14.879Z"/><path data-name="Path 70" d="m201.567 176.483 3.488-2.729a13.486 13.486 0 0 0 4.855-14.091l-1.073-4.3-3.49 2.739a13.492 13.492 0 0 0-4.848 14.082Z"/><path data-name="Path 71" d="m236.723 35.678 2.366-3.718a13.494 13.494 0 0 0-.133-14.9l-2.433-3.678-2.363 3.727a13.512 13.512 0 0 0 .135 14.892Z"/><path data-name="Path 72" d="m249.279 68.809 3.517-2.69a13.49 13.49 0 0 0 4.99-14.046l-1.03-4.314-3.523 2.704a13.514 13.514 0 0 0-4.983 14.034Z"/><path data-name="Path 73" d="m250.219 104.359 4.21-1.434a13.48 13.48 0 0 0 9.216-11.719l.4-4.432-4.215 1.44a13.482 13.482 0 0 0-9.208 11.711Z"/><path data-name="Path 74" d="m238.614 138.77 4.456.13a13.488 13.488 0 0 0 12.734-7.747l1.937-4.024-4.466-.125a13.481 13.481 0 0 0-12.724 7.746Z"/><path data-name="Path 75" d="m216.608 166.605 4.146 1.612a13.566 13.566 0 0 0 14.595-3.034l3.161-3.134-4.152-1.612a13.565 13.565 0 0 0-14.586 3.037Z"/><path data-name="Path 76" d="m235.97 36.108-2.744-3.445a13.486 13.486 0 0 0-14.139-4.72l-4.275 1.107 2.758 3.453a13.485 13.485 0 0 0 14.134 4.714Z"/><path data-name="Path 77" d="m248.603 68.888-1.48-4.138a13.494 13.494 0 0 0-11.839-9.046l-4.385-.34 1.484 4.143a13.489 13.489 0 0 0 11.837 9.04Z"/><path data-name="Path 78" d="m249.227 104.164.079-4.381a13.49 13.49 0 0 0-7.876-12.653l-3.968-1.861-.082 4.386a13.474 13.474 0 0 0 7.874 12.648Z"/><path data-name="Path 79" d="m237.924 138.312 1.531-4.106a13.513 13.513 0 0 0-3.246-14.55l-3.132-3.07-1.533 4.114a13.512 13.512 0 0 0 3.248 14.544Z"/><path data-name="Path 80" d="m216.072 165.946 2.848-3.368a13.511 13.511 0 0 0 1.874-14.788l-1.919-3.975-2.851 3.377a13.52 13.52 0 0 0-1.869 14.777Z"/><path data-name="Path 81" d="m244.499 51.783 2.968-3.269A13.5 13.5 0 0 0 249.86 33.8l-1.777-4.043-2.97 3.275a13.5 13.5 0 0 0-2.387 14.7Z"/><path data-name="Path 82" d="m229.25 26.051-.657-4.668a11.327 11.327 0 0 0-8.222-9.449l-4.534-1.3.661 4.673a11.34 11.34 0 0 0 8.219 9.443Z"/><path data-name="Path 83" d="m12.786 86.358-3.917-2.1a13.526 13.526 0 0 1-7.2-13.053l.32-4.431 3.919 2.1a13.525 13.525 0 0 1 7.194 13.046Z"/><path data-name="Path 84" d="m18.127 122.328-4.4-.7a13.479 13.479 0 0 1-11.073-9.971l-1.156-4.307 4.409.7a13.48 13.48 0 0 1 11.068 9.972Z"/><path data-name="Path 85" d="m35.113 153.57-4.377.851a13.479 13.479 0 0 1-13.82-5.582l-2.562-3.656 4.385-.845a13.491 13.491 0 0 1 13.81 5.577Z"/><path data-name="Path 86" d="m61.679 177.018-3.731 2.389a13.5 13.5 0 0 1-14.908-.1l-3.714-2.442 3.751-2.394a13.494 13.494 0 0 1 14.9.1Z"/><path data-name="Path 87" d="m20.372 52.081 2.115-3.858a13.512 13.512 0 0 1 13.131-7.062l4.387.362-2.122 3.858a13.528 13.528 0 0 1-13.123 7.05Z"/><path data-name="Path 88" d="m13.592 86.309.731-4.324a13.487 13.487 0 0 1 10.073-10.983l4.252-1.1-.737 4.334A13.491 13.491 0 0 1 17.84 85.212Z"/><path data-name="Path 89" d="m19.148 121.952-.862-4.3a13.491 13.491 0 0 1 5.484-13.861l3.584-2.551.859 4.319a13.5 13.5 0 0 1-5.488 13.844Z"/><path data-name="Path 90" d="m35.834 152.951-2.245-3.794a13.492 13.492 0 0 1 .617-14.889l2.547-3.6 2.243 3.8a13.5 13.5 0 0 1-.619 14.879Z"/><path data-name="Path 91" d="m62.48 176.481-3.486-2.729a13.484 13.484 0 0 1-4.855-14.091l1.071-4.3 3.493 2.737a13.5 13.5 0 0 1 4.847 14.083Z"/><path data-name="Path 92" d="m27.323 35.677-2.363-3.718a13.5 13.5 0 0 1 .13-14.905l2.434-3.678 2.366 3.728a13.511 13.511 0 0 1-.136 14.891Z"/><path data-name="Path 93" d="m14.769 68.808-3.513-2.689a13.493 13.493 0 0 1-5-14.048l1.031-4.314 3.52 2.706a13.512 13.512 0 0 1 4.982 14.034Z"/><path data-name="Path 94" d="m13.83 104.357-4.212-1.433A13.481 13.481 0 0 1 .4 91.205L0 86.773l4.217 1.44a13.477 13.477 0 0 1 9.207 11.711Z"/><path data-name="Path 95" d="m25.433 138.77-4.455.128a13.492 13.492 0 0 1-12.734-7.747l-1.937-4.024 4.468-.125a13.484 13.484 0 0 1 12.724 7.743Z"/><path data-name="Path 96" d="m47.436 166.605-4.146 1.61a13.565 13.565 0 0 1-14.595-3.034l-3.159-3.132 4.153-1.613a13.568 13.568 0 0 1 14.585 3.037Z"/><path data-name="Path 97" d="m28.076 36.107 2.744-3.445a13.485 13.485 0 0 1 14.138-4.72l4.276 1.108-2.759 3.451a13.479 13.479 0 0 1-14.132 4.714Z"/><path data-name="Path 98" d="m15.446 68.887 1.484-4.138a13.494 13.494 0 0 1 11.839-9.046l4.385-.34-1.484 4.143a13.5 13.5 0 0 1-11.839 9.041Z"/><path data-name="Path 99" d="m14.821 104.162-.079-4.381a13.487 13.487 0 0 1 7.876-12.652l3.968-1.863.082 4.388a13.474 13.474 0 0 1-7.876 12.646Z"/><path data-name="Path 100" d="m26.124 138.313-1.533-4.107a13.515 13.515 0 0 1 3.245-14.551l3.132-3.07 1.533 4.114a13.511 13.511 0 0 1-3.249 14.544Z"/><path data-name="Path 101" d="m47.977 165.946-2.848-3.368a13.511 13.511 0 0 1-1.877-14.788l1.921-3.975 2.85 3.377a13.521 13.521 0 0 1 1.87 14.777Z"/><path data-name="Path 102" d="m19.548 51.782-2.967-3.269a13.5 13.5 0 0 1-2.395-14.714l1.779-4.045 2.97 3.275a13.5 13.5 0 0 1 2.387 14.7Z"/><path data-name="Path 103" d="m34.796 26.05.658-4.668a11.33 11.33 0 0 1 8.223-9.448l4.535-1.3-.663 4.674a11.334 11.334 0 0 1-8.219 9.441Z"/></g><path data-name="Path 1661" d="m103.348 83 1.534-4.81h-3.718L99.656 83h-3.042l1.508-4.81h-2.34v-2.73h3.2l1.04-3.406h-2.34v-2.73h3.218l1.456-4.784h3.094l-1.508 4.784h3.692l1.482-4.784h3.068l-1.508 4.784h2.314v2.73h-3.172l-1.062 3.406h2.366v2.73H107.9L106.39 83Zm-.26-10.946-1.066 3.406h3.718l1.014-3.406ZM115.88 83V64.54h6.76a5.324 5.324 0 0 1 3.9 1.573 5.137 5.137 0 0 1 1.586 3.787 4.232 4.232 0 0 1-1.456 3.3 4.549 4.549 0 0 1 2.73 4.366 5.133 5.133 0 0 1-1.638 3.874A5.687 5.687 0 0 1 123.68 83Zm3.77-3.458h3.77a2.372 2.372 0 0 0 1.69-.585 1.99 1.99 0 0 0 .624-1.521 2.031 2.031 0 0 0-.624-1.536 2.341 2.341 0 0 0-1.69-.6h-3.77Zm0-7.436h2.626a2.17 2.17 0 0 0 1.586-.585 1.97 1.97 0 0 0 .6-1.469 2 2 0 0 0-.611-1.469 2.129 2.129 0 0 0-1.573-.611h-2.628Zm18.434 11.18a6.856 6.856 0 0 1-4.927-1.872 6.479 6.479 0 0 1-1.963-4.914 6.555 6.555 0 0 1 1.95-4.849 6.654 6.654 0 0 1 4.888-1.937 6.517 6.517 0 0 1 4.55 1.677 6.051 6.051 0 0 1 1.846 4.719 9.849 9.849 0 0 1-.052 1.222h-9.724a2.772 2.772 0 0 0 1.131 1.989 3.827 3.827 0 0 0 2.327.715 3.712 3.712 0 0 0 3.354-1.636l2.652 1.976a6.83 6.83 0 0 1-6.032 2.91Zm-3.3-8.372h6.082a2.619 2.619 0 0 0-1.053-1.69 3.21 3.21 0 0 0-1.885-.572 3.688 3.688 0 0 0-2 .572 2.513 2.513 0 0 0-1.146 1.69Zm16.638 8.372a5.966 5.966 0 0 1-5.356-2.5l2.444-2.076a3.183 3.183 0 0 0 2.912 1.508 2.04 2.04 0 0 0 1.014-.234.757.757 0 0 0 .416-.7.839.839 0 0 0-.351-.689 4.411 4.411 0 0 0-1.391-.559l-.962-.236a5.132 5.132 0 0 1-2.717-1.56 3.689 3.689 0 0 1-.871-2.6 3.6 3.6 0 0 1 1.417-2.847 5.426 5.426 0 0 1 3.471-1.079 5.107 5.107 0 0 1 4.5 2.184l-2.34 1.9a2.737 2.737 0 0 0-2.21-1.144 1.735 1.735 0 0 0-.91.234.724.724 0 0 0-.39.65q0 .78 1.274 1.118l1.222.364q3.77 1.014 3.77 4.03a3.821 3.821 0 0 1-1.4 3.042 5.262 5.262 0 0 1-3.542 1.194Zm14.118-.13a5.4 5.4 0 0 1-3.666-1.2 4.4 4.4 0 0 1-1.374-3.506v-5.33h-3.15V70h3.15v-3.9h3.562V70h3.926v3.12h-3.93v4.628a2.394 2.394 0 0 0 .481 1.677 1.974 1.974 0 0 0 1.495.507 3.766 3.766 0 0 0 1.794-.442l1.066 2.91a7 7 0 0 1-3.354.756Zm-92.209 29.156a9.194 9.194 0 0 1-6.747-2.8 9.194 9.194 0 0 1-2.795-6.747 9.194 9.194 0 0 1 2.795-6.747 9.194 9.194 0 0 1 6.747-2.8 9.8 9.8 0 0 1 5.044 1.339 9.023 9.023 0 0 1 3.484 3.575l-3.276 1.82a5.767 5.767 0 0 0-5.252-3.094 5.458 5.458 0 0 0-4.069 1.742 5.776 5.776 0 0 0-1.677 4.173 5.776 5.776 0 0 0 1.677 4.173 5.458 5.458 0 0 0 4.069 1.729 5.767 5.767 0 0 0 5.252-3.094l3.276 1.82a8.938 8.938 0 0 1-3.459 3.585 9.838 9.838 0 0 1-5.069 1.326ZM84.459 112V93.54h11.232v3.588h-7.462v3.822h5.85v3.588h-5.85V112Zm14.092 0V93.54h6.084a9.3 9.3 0 0 1 6.734 2.678 8.785 8.785 0 0 1 2.756 6.552 8.785 8.785 0 0 1-2.756 6.552 9.3 9.3 0 0 1-6.734 2.678Zm3.77-3.458h2.314a5.42 5.42 0 0 0 4.108-1.664 5.726 5.726 0 0 0 1.586-4.108 5.726 5.726 0 0 0-1.586-4.108A5.42 5.42 0 0 0 104.635 97h-2.314ZM123.1 112V93.54h6.76a5.324 5.324 0 0 1 3.9 1.573 5.137 5.137 0 0 1 1.581 3.787 4.232 4.232 0 0 1-1.456 3.3 4.549 4.549 0 0 1 2.73 4.368 5.133 5.133 0 0 1-1.638 3.872A5.687 5.687 0 0 1 130.9 112Zm3.77-3.458h3.77a2.372 2.372 0 0 0 1.69-.585 1.99 1.99 0 0 0 .624-1.521 2.031 2.031 0 0 0-.629-1.536 2.341 2.341 0 0 0-1.69-.6h-3.77Zm0-7.436h2.626a2.17 2.17 0 0 0 1.586-.585 1.97 1.97 0 0 0 .6-1.469 2 2 0 0 0-.611-1.469 2.129 2.129 0 0 0-1.573-.611h-2.633ZM139.111 112V99h3.562v1.56a2.8 2.8 0 0 1 1.183-1.222 3.569 3.569 0 0 1 1.833-.494 4.445 4.445 0 0 1 1.508.234l-.546 3.354a2.912 2.912 0 0 0-1.092-.156 3.115 3.115 0 0 0-2.886 1.456V112Zm20.462-1.677a6.655 6.655 0 0 1-4.836 1.963 6.655 6.655 0 0 1-4.837-1.963 6.492 6.492 0 0 1-2-4.823 6.5 6.5 0 0 1 2-4.81 6.906 6.906 0 0 1 9.672 0 6.5 6.5 0 0 1 2 4.81 6.492 6.492 0 0 1-1.999 4.823Zm-4.836-1.365a3.038 3.038 0 0 0 2.3-.975 3.467 3.467 0 0 0 .923-2.483 3.467 3.467 0 0 0-.923-2.483 3.233 3.233 0 0 0-4.628 0 3.467 3.467 0 0 0-.923 2.483 3.467 3.467 0 0 0 .923 2.483 3.068 3.068 0 0 0 2.328.975ZM173.015 112l-5.3-5.98V112h-3.566V93.02h3.562v10.764L171.923 99h4.29l-5.148 5.85 6.344 7.15Zm10.842.286a6.856 6.856 0 0 1-4.927-1.872 6.479 6.479 0 0 1-1.963-4.914 6.555 6.555 0 0 1 1.95-4.849 6.654 6.654 0 0 1 4.888-1.937 6.517 6.517 0 0 1 4.55 1.677 6.051 6.051 0 0 1 1.845 4.719 9.85 9.85 0 0 1-.052 1.222h-9.723a2.772 2.772 0 0 0 1.131 1.989 3.827 3.827 0 0 0 2.327.715 3.712 3.712 0 0 0 3.354-1.636l2.652 1.976a6.83 6.83 0 0 1-6.032 2.91Zm-3.3-8.372h6.084a2.619 2.619 0 0 0-1.053-1.69 3.21 3.21 0 0 0-1.885-.572 3.688 3.688 0 0 0-2 .572 2.513 2.513 0 0 0-1.148 1.69Zm12.27 8.086V99h3.562v1.56a2.8 2.8 0 0 1 1.183-1.222 3.569 3.569 0 0 1 1.833-.494 4.445 4.445 0 0 1 1.508.234l-.546 3.354a2.912 2.912 0 0 0-1.092-.156 3.115 3.115 0 0 0-2.886 1.456V112Zm-90.259 29v-3.12l7.2-6.942a4.465 4.465 0 0 0 1.614-2.938 2.189 2.189 0 0 0-.65-1.612 2.389 2.389 0 0 0-1.768-.65 2.707 2.707 0 0 0-1.872.728 3.807 3.807 0 0 0-1.118 1.872l-3.458-.832a6.289 6.289 0 0 1 2.314-3.861 6.818 6.818 0 0 1 4.316-1.417 5.988 5.988 0 0 1 4.134 1.482 5.217 5.217 0 0 1 1.664 4.108 6.134 6.134 0 0 1-.754 3.107 13.1 13.1 0 0 1-2.288 2.8L108 137.49h7.124V141Zm22.022.286a6.5 6.5 0 0 1-4.966-2.054 7.376 7.376 0 0 1-1.924-5.252v-4.472a7.341 7.341 0 0 1 1.924-5.226 6.5 6.5 0 0 1 4.966-2.054 6.467 6.467 0 0 1 4.94 2.054 7.341 7.341 0 0 1 1.924 5.226v4.472a7.376 7.376 0 0 1-1.924 5.252 6.467 6.467 0 0 1-4.94 2.054Zm-2.418-4.524a3.09 3.09 0 0 0 2.418 1.014 3.051 3.051 0 0 0 2.41-1.014 4.052 4.052 0 0 0 .9-2.782v-4.472a4 4 0 0 0-.9-2.769 3.069 3.069 0 0 0-2.4-1 3.11 3.11 0 0 0-2.418 1 3.965 3.965 0 0 0-.91 2.769v4.472a4.014 4.014 0 0 0 .9 2.782ZM133.82 141v-3.12l7.2-6.942a4.465 4.465 0 0 0 1.614-2.938 2.189 2.189 0 0 0-.65-1.612 2.389 2.389 0 0 0-1.768-.65 2.707 2.707 0 0 0-1.872.728 3.807 3.807 0 0 0-1.118 1.872l-3.458-.832a6.289 6.289 0 0 1 2.314-3.861 6.818 6.818 0 0 1 4.318-1.417 5.988 5.988 0 0 1 4.134 1.482 5.217 5.217 0 0 1 1.666 4.108 6.134 6.134 0 0 1-.754 3.107 13.1 13.1 0 0 1-2.288 2.8l-3.9 3.77h7.124V141Zm14.846 0v-3.12l7.2-6.942A4.465 4.465 0 0 0 157.48 128a2.189 2.189 0 0 0-.65-1.612 2.389 2.389 0 0 0-1.768-.65 2.707 2.707 0 0 0-1.872.728 3.807 3.807 0 0 0-1.118 1.872l-3.458-.832a6.289 6.289 0 0 1 2.314-3.861 6.818 6.818 0 0 1 4.316-1.417 5.988 5.988 0 0 1 4.134 1.482 5.217 5.217 0 0 1 1.664 4.108 6.134 6.134 0 0 1-.754 3.107A13.1 13.1 0 0 1 158 133.72l-3.9 3.77h7.124V141Z" fill="#606060"/><path data-name="Path 1660" d="M87.184 191.202v-11.36h3.584a3.5 3.5 0 0 1 2.48.848 2.713 2.713 0 0 1 .912 2.064 2.583 2.583 0 0 1-1.3 2.416 2.676 2.676 0 0 1 2.048 2.72 3.019 3.019 0 0 1-1.06 2.384 4.143 4.143 0 0 1-2.824.928Zm1.216-1.1h2.752a2.8 2.8 0 0 0 1.9-.576 1.943 1.943 0 0 0 .656-1.536 1.978 1.978 0 0 0-.648-1.544 2.745 2.745 0 0 0-1.9-.584H88.4Zm0-5.3h2.448a2.153 2.153 0 0 0 1.552-.536 1.83 1.83 0 0 0 .56-1.384 1.865 1.865 0 0 0-.568-1.368 2.086 2.086 0 0 0-1.544-.568H88.4Zm8.3 6.4v-8h1.12v1.248a2.375 2.375 0 0 1 .9-.936 2.481 2.481 0 0 1 1.344-.392 2.9 2.9 0 0 1 .656.064l-.144 1.152a2.282 2.282 0 0 0-.688-.1 1.95 1.95 0 0 0-1.264.472 2.446 2.446 0 0 0-.8 1.272v5.22Zm11.472-1.048a4.013 4.013 0 0 1-2.988 1.208 4.013 4.013 0 0 1-2.992-1.208 4.058 4.058 0 0 1-1.184-2.952 4.058 4.058 0 0 1 1.184-2.952 4.013 4.013 0 0 1 2.992-1.208 4.013 4.013 0 0 1 2.992 1.208 4.058 4.058 0 0 1 1.184 2.952 4.058 4.058 0 0 1-1.184 2.952Zm-5.172-.736a2.844 2.844 0 0 0 2.184.9 2.844 2.844 0 0 0 2.184-.9 3.135 3.135 0 0 0 .84-2.216 3.135 3.135 0 0 0-.84-2.216 2.844 2.844 0 0 0-2.184-.9 2.844 2.844 0 0 0-2.184.9 3.135 3.135 0 0 0-.84 2.216 3.135 3.135 0 0 0 .84 2.216Zm13.9 1.784-4.66-4.08v4.08h-1.12v-11.68h1.12v6.832l3.76-3.152h1.584l-4.208 3.52 5.124 4.48Zm5.376.16a3.923 3.923 0 0 1-2.976-1.192 4.134 4.134 0 0 1-1.14-2.968 4.079 4.079 0 0 1 1.168-2.96 3.974 3.974 0 0 1 2.972-1.2 3.618 3.618 0 0 1 2.692 1.088 4.034 4.034 0 0 1 1.072 2.96v.3h-6.752a2.849 2.849 0 0 0 .832 2.088 2.867 2.867 0 0 0 2.128.84 2.985 2.985 0 0 0 1.576-.376 3.2 3.2 0 0 0 1.064-1.124l.912.592a3.819 3.819 0 0 1-3.552 1.952Zm-2.868-4.96h5.492a2.68 2.68 0 0 0-.88-1.7 2.594 2.594 0 0 0-1.76-.624 2.918 2.918 0 0 0-1.848.632 2.673 2.673 0 0 0-1.004 1.692Zm8.4 4.8v-8h1.12v1.248a2.375 2.375 0 0 1 .9-.936 2.481 2.481 0 0 1 1.34-.392 2.9 2.9 0 0 1 .656.064l-.144 1.152a2.282 2.282 0 0 0-.688-.1 1.95 1.95 0 0 0-1.264.472 2.446 2.446 0 0 0-.8 1.272v5.22Zm8.48.08a2.4 2.4 0 0 1-1.656-.592 2.174 2.174 0 0 1-.664-1.712v-4.72h-2.032v-1.056h2.032v-2.224h1.12v2.224h2.5v1.056h-2.5v4.624a1.382 1.382 0 0 0 .36 1.056 1.317 1.317 0 0 0 .936.336 2.387 2.387 0 0 0 1.184-.3l.336.96a3.443 3.443 0 0 1-1.616.348Zm6.212.08a3.923 3.923 0 0 1-2.98-1.192 4.134 4.134 0 0 1-1.136-2.968 4.079 4.079 0 0 1 1.168-2.96 3.974 3.974 0 0 1 2.976-1.2 3.618 3.618 0 0 1 2.688 1.088 4.034 4.034 0 0 1 1.072 2.96v.3h-6.752a2.849 2.849 0 0 0 .832 2.092 2.867 2.867 0 0 0 2.132.84 2.985 2.985 0 0 0 1.576-.376 3.2 3.2 0 0 0 1.064-1.128l.912.592a3.819 3.819 0 0 1-3.552 1.952Zm-2.868-4.96h5.488a2.68 2.68 0 0 0-.88-1.7 2.594 2.594 0 0 0-1.76-.624 2.918 2.918 0 0 0-1.848.632 2.673 2.673 0 0 0-1 1.692Zm10.736 4.96a3.683 3.683 0 0 1-1.96-.5 2.63 2.63 0 0 1-1.144-1.464l1.008-.416a1.742 1.742 0 0 0 .792 1.008 2.476 2.476 0 0 0 1.32.368 1.81 1.81 0 0 0 1.116-.332 1.065 1.065 0 0 0 .44-.9 1.072 1.072 0 0 0-.344-.808 3.161 3.161 0 0 0-1.16-.6l-.864-.272a2.3 2.3 0 0 1-1.92-2.272 1.847 1.847 0 0 1 .76-1.552 3.075 3.075 0 0 1 1.908-.58 2.733 2.733 0 0 1 2.592 1.408l-.9.56a2 2 0 0 0-1.76-.976 1.774 1.774 0 0 0-1.04.312.921.921 0 0 0-.448.776q0 .9 1.248 1.3l.912.288q2.128.672 2.128 2.32a2.11 2.11 0 0 1-.744 1.72 2.949 2.949 0 0 1-1.94.612Zm7.616-.08a2.4 2.4 0 0 1-1.656-.592 2.174 2.174 0 0 1-.664-1.712v-4.72h-2.032v-1.056h2.032v-2.224h1.12v2.224h2.5v1.056h-2.5v4.624a1.382 1.382 0 0 0 .36 1.056 1.317 1.317 0 0 0 .936.336 2.387 2.387 0 0 0 1.184-.3l.336.96a3.443 3.443 0 0 1-1.616.348Zm6.208.08a3.923 3.923 0 0 1-2.976-1.192 4.134 4.134 0 0 1-1.136-2.968 4.079 4.079 0 0 1 1.168-2.96 3.974 3.974 0 0 1 2.976-1.2 3.618 3.618 0 0 1 2.688 1.088 4.034 4.034 0 0 1 1.072 2.96v.3h-6.752a2.849 2.849 0 0 0 .832 2.088 2.867 2.867 0 0 0 2.128.84 2.985 2.985 0 0 0 1.576-.376 3.2 3.2 0 0 0 1.064-1.128l.912.592a3.819 3.819 0 0 1-3.552 1.956Zm-2.864-4.96h5.488a2.68 2.68 0 0 0-.88-1.7 2.594 2.594 0 0 0-1.76-.624 2.918 2.918 0 0 0-1.848.632 2.673 2.673 0 0 0-1 1.692Zm11.792 4.96a3.827 3.827 0 0 1-2.9-1.208 4.133 4.133 0 0 1-1.148-2.952 4.133 4.133 0 0 1 1.144-2.952 3.827 3.827 0 0 1 2.9-1.208 3.591 3.591 0 0 1 2.784 1.136v-4.656h1.12v11.68h-1.12v-.976a3.591 3.591 0 0 1-2.78 1.136Zm.048-1.04a3.246 3.246 0 0 0 1.632-.4 3 3 0 0 0 1.1-1.056v-3.328a3 3 0 0 0-1.1-1.056 3.246 3.246 0 0 0-1.632-.4 2.739 2.739 0 0 0-2.12.9 3.169 3.169 0 0 0-.824 2.22 3.169 3.169 0 0 0 .824 2.216 2.739 2.739 0 0 0 2.12.904Z" fill="#a5a5a5"/></g></svg>