<svg xmlns="http://www.w3.org/2000/svg" width="264.047" height="211.306"><defs><clipPath id="a"><path data-name="Rectangle 11" fill="#41b8ea" d="M0 0h264.047v207.042H0z"/></clipPath></defs><g data-name="Best Education Material"><path data-name="Path 1656" d="M93.064 191.202v-11.36h1.216v11.36Zm3.856 0v-8h1.12v1.12a2.879 2.879 0 0 1 2.624-1.28 2.919 2.919 0 0 1 2.168.848 3.13 3.13 0 0 1 .84 2.3v5.012h-1.12v-4.848a2.33 2.33 0 0 0-.568-1.68 2.081 2.081 0 0 0-1.576-.592 2.318 2.318 0 0 0-1.512.488 2.658 2.658 0 0 0-.856 1.3v5.332Zm11.392 0-3.744-8h1.248l2.928 6.352 2.928-6.352h1.264l-3.744 8Zm9.12.16a3.923 3.923 0 0 1-2.976-1.192 4.134 4.134 0 0 1-1.136-2.968 4.079 4.079 0 0 1 1.168-2.96 3.974 3.974 0 0 1 2.976-1.2 3.618 3.618 0 0 1 2.688 1.088 4.034 4.034 0 0 1 1.072 2.96v.3h-6.752a2.849 2.849 0 0 0 .828 2.092 2.867 2.867 0 0 0 2.128.84 2.985 2.985 0 0 0 1.576-.376 3.2 3.2 0 0 0 1.064-1.128l.912.592a3.819 3.819 0 0 1-3.548 1.952Zm-2.864-4.96h5.488a2.68 2.68 0 0 0-.88-1.7 2.594 2.594 0 0 0-1.76-.624 2.918 2.918 0 0 0-1.848.632 2.673 2.673 0 0 0-1 1.692Zm10.732 4.96a3.683 3.683 0 0 1-1.96-.5 2.63 2.63 0 0 1-1.14-1.468l1.008-.416a1.742 1.742 0 0 0 .792 1.008 2.476 2.476 0 0 0 1.32.368 1.81 1.81 0 0 0 1.112-.328 1.065 1.065 0 0 0 .44-.9 1.072 1.072 0 0 0-.344-.808 3.161 3.161 0 0 0-1.16-.6l-.868-.276a2.3 2.3 0 0 1-1.92-2.272 1.847 1.847 0 0 1 .76-1.552 3.075 3.075 0 0 1 1.916-.576 2.733 2.733 0 0 1 2.592 1.408l-.9.56a2 2 0 0 0-1.76-.976 1.774 1.774 0 0 0-1.04.312.921.921 0 0 0-.448.776q0 .9 1.248 1.3l.912.288q2.128.672 2.128 2.32a2.11 2.11 0 0 1-.744 1.72 2.949 2.949 0 0 1-1.944.612Zm7.62-.08a2.4 2.4 0 0 1-1.656-.592 2.174 2.174 0 0 1-.664-1.712v-4.72h-2.032v-1.056h2.032v-2.224h1.12v2.224h2.5v1.056h-2.5v4.624a1.382 1.382 0 0 0 .36 1.056 1.317 1.317 0 0 0 .936.336 2.387 2.387 0 0 0 1.184-.3l.336.96a3.443 3.443 0 0 1-1.616.348Zm13.248-.08v-4.832a2.478 2.478 0 0 0-.528-1.68 1.79 1.79 0 0 0-1.424-.608 2.009 2.009 0 0 0-1.352.472 2.614 2.614 0 0 0-.792 1.288 2.646 2.646 0 0 1 .032.352v5.008h-1.12v-4.832a2.478 2.478 0 0 0-.528-1.68 1.79 1.79 0 0 0-1.424-.608 2.1 2.1 0 0 0-1.32.424 2.33 2.33 0 0 0-.792 1.144v5.552h-1.12v-8h1.12v.928a2.769 2.769 0 0 1 2.38-1.088 2.546 2.546 0 0 1 2.372 1.408 3.037 3.037 0 0 1 2.7-1.408 2.756 2.756 0 0 1 2.128.848 3.261 3.261 0 0 1 .784 2.3v5.012Zm6.88.16a3.923 3.923 0 0 1-2.976-1.192 4.134 4.134 0 0 1-1.136-2.968 4.079 4.079 0 0 1 1.164-2.96 3.974 3.974 0 0 1 2.976-1.2 3.618 3.618 0 0 1 2.688 1.088 4.034 4.034 0 0 1 1.072 2.96v.3h-6.748a2.849 2.849 0 0 0 .832 2.092 2.867 2.867 0 0 0 2.128.84 2.985 2.985 0 0 0 1.576-.376 3.2 3.2 0 0 0 1.064-1.128l.912.592a3.819 3.819 0 0 1-3.552 1.952Zm-2.864-4.96h5.488a2.68 2.68 0 0 0-.88-1.7 2.594 2.594 0 0 0-1.76-.624 2.918 2.918 0 0 0-1.848.632 2.673 2.673 0 0 0-1 1.692Zm8.4 4.8v-8h1.116v1.12a2.879 2.879 0 0 1 2.624-1.28 2.919 2.919 0 0 1 2.168.848 3.13 3.13 0 0 1 .84 2.3v5.012h-1.12v-4.848a2.33 2.33 0 0 0-.568-1.68 2.081 2.081 0 0 0-1.576-.592 2.318 2.318 0 0 0-1.512.488 2.659 2.659 0 0 0-.856 1.3v5.332Zm12.116.08a2.4 2.4 0 0 1-1.66-.592 2.174 2.174 0 0 1-.664-1.712v-4.72h-2.032v-1.056h2.032v-2.224h1.124v2.224h2.5v1.056h-2.5v4.624a1.382 1.382 0 0 0 .36 1.056 1.317 1.317 0 0 0 .936.336 2.387 2.387 0 0 0 1.184-.3l.336.96a3.443 3.443 0 0 1-1.616.348Zm-84.66 16.92v-10.208h-3.68v-1.152h8.56v1.152h-3.68v10.208Zm4.688 0v-8h1.12v1.248a2.375 2.375 0 0 1 .9-.936 2.481 2.481 0 0 1 1.344-.392 2.9 2.9 0 0 1 .656.064l-.144 1.152a2.282 2.282 0 0 0-.688-.1 1.95 1.95 0 0 0-1.264.472 2.446 2.446 0 0 0-.8 1.272v5.22Zm8.432.16a3.923 3.923 0 0 1-2.976-1.192 4.134 4.134 0 0 1-1.136-2.968 4.079 4.079 0 0 1 1.168-2.96 3.974 3.974 0 0 1 2.976-1.2 3.618 3.618 0 0 1 2.688 1.088 4.034 4.034 0 0 1 1.072 2.96v.3H96.2a2.849 2.849 0 0 0 .832 2.088 2.867 2.867 0 0 0 2.128.84 2.985 2.985 0 0 0 1.576-.376 3.2 3.2 0 0 0 1.064-1.124l.912.592a3.819 3.819 0 0 1-3.552 1.952Zm-2.86-4.96h5.488a2.68 2.68 0 0 0-.88-1.7 2.594 2.594 0 0 0-1.76-.624 2.918 2.918 0 0 0-1.848.632 2.673 2.673 0 0 0-1 1.692Zm8.4 4.8v-8h1.12v1.12a2.879 2.879 0 0 1 2.62-1.28 2.919 2.919 0 0 1 2.168.848 3.13 3.13 0 0 1 .84 2.3v5.012h-1.12v-4.848a2.33 2.33 0 0 0-.568-1.68 2.081 2.081 0 0 0-1.576-.592 2.318 2.318 0 0 0-1.512.488 2.658 2.658 0 0 0-.856 1.3v5.332Zm12.448.16a3.827 3.827 0 0 1-2.9-1.208 4.133 4.133 0 0 1-1.148-2.952 4.133 4.133 0 0 1 1.144-2.952 3.827 3.827 0 0 1 2.9-1.208 3.591 3.591 0 0 1 2.784 1.136v-4.656h1.12v11.68h-1.12v-.976a3.591 3.591 0 0 1-2.784 1.136Zm.048-1.04a3.246 3.246 0 0 0 1.632-.4 3 3 0 0 0 1.1-1.056v-3.328a3 3 0 0 0-1.1-1.056 3.246 3.246 0 0 0-1.632-.4 2.739 2.739 0 0 0-2.12.9 3.169 3.169 0 0 0-.828 2.22 3.169 3.169 0 0 0 .824 2.216 2.739 2.739 0 0 0 2.12.904Zm8.624 1.04a3.683 3.683 0 0 1-1.96-.5 2.63 2.63 0 0 1-1.144-1.464l1.008-.416a1.742 1.742 0 0 0 .792 1.008 2.476 2.476 0 0 0 1.32.368 1.81 1.81 0 0 0 1.112-.328 1.065 1.065 0 0 0 .44-.9 1.072 1.072 0 0 0-.344-.808 3.161 3.161 0 0 0-1.16-.6l-.864-.272a2.3 2.3 0 0 1-1.92-2.28 1.847 1.847 0 0 1 .76-1.552 3.075 3.075 0 0 1 1.908-.576 2.733 2.733 0 0 1 2.592 1.408l-.9.56a2 2 0 0 0-1.76-.976 1.774 1.774 0 0 0-1.04.312.921.921 0 0 0-.448.776q0 .9 1.248 1.3l.912.288q2.128.672 2.128 2.32a2.11 2.11 0 0 1-.744 1.72 2.949 2.949 0 0 1-1.94.612Zm8.3-.16v-11.36h3.712a3.5 3.5 0 0 1 2.468.824 2.883 2.883 0 0 1 .9 2.232 2.9 2.9 0 0 1-.792 2.12 3.31 3.31 0 0 1-2.184.92l4.488 5.264h-1.584l-4.5-5.28h-1.3v5.28Zm1.216-6.4h2.352q2.272 0 2.272-1.9 0-1.92-2.272-1.92h-2.352Zm11.564 6.56a3.923 3.923 0 0 1-2.976-1.192 4.134 4.134 0 0 1-1.132-2.968 4.079 4.079 0 0 1 1.168-2.96 3.974 3.974 0 0 1 2.976-1.2 3.618 3.618 0 0 1 2.688 1.088 4.034 4.034 0 0 1 1.072 2.96v.3h-6.752a2.859 2.859 0 0 0 2.956 2.932 2.985 2.985 0 0 0 1.576-.376 3.2 3.2 0 0 0 1.064-1.128l.912.592a3.819 3.819 0 0 1-3.552 1.952Zm-2.86-4.96h5.488a2.68 2.68 0 0 0-.88-1.7 2.594 2.594 0 0 0-1.76-.624 2.918 2.918 0 0 0-1.848.632 2.673 2.673 0 0 0-1 1.692Zm8.4 7.9v-11.1h1.12v.976a3.591 3.591 0 0 1 2.784-1.136 3.827 3.827 0 0 1 2.9 1.208 4.133 4.133 0 0 1 1.148 2.952 4.133 4.133 0 0 1-1.144 2.952 3.827 3.827 0 0 1-2.9 1.208 3.591 3.591 0 0 1-2.784-1.136v4.076Zm3.86-3.98a2.739 2.739 0 0 0 2.12-.9 3.169 3.169 0 0 0 .82-2.22 3.169 3.169 0 0 0-.824-2.216 2.739 2.739 0 0 0-2.12-.9 3.246 3.246 0 0 0-1.632.4 3 3 0 0 0-1.1 1.056v3.328a3 3 0 0 0 1.1 1.056 3.246 3.246 0 0 0 1.636.396Zm12.352-.168a4.309 4.309 0 0 1-5.984 0 4.058 4.058 0 0 1-1.188-2.952 4.058 4.058 0 0 1 1.184-2.952 4.309 4.309 0 0 1 5.984 0 4.058 4.058 0 0 1 1.184 2.952 4.058 4.058 0 0 1-1.184 2.952Zm-5.176-.736a3.09 3.09 0 0 0 4.368 0 3.135 3.135 0 0 0 .836-2.216 3.135 3.135 0 0 0-.84-2.216 3.09 3.09 0 0 0-4.368 0 3.135 3.135 0 0 0-.84 2.216 3.135 3.135 0 0 0 .84 2.216Zm8.116 1.784v-8h1.12v1.248a2.375 2.375 0 0 1 .9-.936 2.481 2.481 0 0 1 1.344-.392 2.9 2.9 0 0 1 .656.064l-.144 1.152a2.282 2.282 0 0 0-.688-.1 1.95 1.95 0 0 0-1.264.472 2.446 2.446 0 0 0-.8 1.272v5.22Zm8.48.08a2.4 2.4 0 0 1-1.656-.592 2.174 2.174 0 0 1-.664-1.712v-4.72h-2.032v-1.056h2.032v-2.224h1.12v2.224h2.5v1.056h-2.5v4.624a1.382 1.382 0 0 0 .36 1.056 1.317 1.317 0 0 0 .936.336 2.387 2.387 0 0 0 1.184-.3l.336.96a3.443 3.443 0 0 1-1.616.348Z" fill="#a5a5a5"/><path data-name="Path 1655" d="m95.678 83 1.534-4.81h-3.718L91.986 83h-3.042l1.508-4.81h-2.34v-2.73h3.2l1.04-3.406h-2.34v-2.73h3.224l1.456-4.784h3.094l-1.508 4.784h3.692l1.482-4.784h3.068l-1.508 4.784h2.314v2.73h-3.172l-1.068 3.406h2.366v2.73h-3.224L98.72 83Zm-.26-10.946-1.066 3.406h3.718l1.014-3.406ZM109.952 83V68.05h-3.224v-3.51h6.786V83Zm13.6 0V64.54h6.76a5.324 5.324 0 0 1 3.9 1.573A5.137 5.137 0 0 1 135.8 69.9a4.232 4.232 0 0 1-1.46 3.3 4.549 4.549 0 0 1 2.73 4.366 5.133 5.133 0 0 1-1.638 3.874A5.687 5.687 0 0 1 131.35 83Zm3.77-3.458h3.768a2.372 2.372 0 0 0 1.69-.585 1.99 1.99 0 0 0 .62-1.521 2.031 2.031 0 0 0-.62-1.536 2.341 2.341 0 0 0-1.69-.6h-3.77Zm0-7.436h2.626a2.17 2.17 0 0 0 1.586-.585 1.97 1.97 0 0 0 .6-1.469 2 2 0 0 0-.611-1.469 2.129 2.129 0 0 0-1.573-.611h-2.63Zm18.432 11.18a6.856 6.856 0 0 1-4.927-1.872 6.479 6.479 0 0 1-1.963-4.914 6.555 6.555 0 0 1 1.95-4.849 6.654 6.654 0 0 1 4.886-1.937 6.517 6.517 0 0 1 4.55 1.677 6.051 6.051 0 0 1 1.85 4.719 9.849 9.849 0 0 1-.052 1.222h-9.726a2.771 2.771 0 0 0 1.131 1.989 3.827 3.827 0 0 0 2.327.715 3.712 3.712 0 0 0 3.354-1.636l2.652 1.976a6.83 6.83 0 0 1-6.032 2.91Zm-3.3-8.372h6.084a2.619 2.619 0 0 0-1.053-1.69 3.21 3.21 0 0 0-1.885-.572 3.688 3.688 0 0 0-2 .572 2.513 2.513 0 0 0-1.148 1.69Zm16.638 8.372a5.966 5.966 0 0 1-5.356-2.5l2.444-2.076a3.183 3.183 0 0 0 2.912 1.508 2.04 2.04 0 0 0 1.014-.234.757.757 0 0 0 .416-.7.839.839 0 0 0-.351-.689 4.411 4.411 0 0 0-1.391-.559l-.962-.236a5.132 5.132 0 0 1-2.718-1.56 3.689 3.689 0 0 1-.871-2.6 3.6 3.6 0 0 1 1.417-2.847 5.426 5.426 0 0 1 3.471-1.079 5.107 5.107 0 0 1 4.5 2.184l-2.34 1.9a2.737 2.737 0 0 0-2.21-1.144 1.735 1.735 0 0 0-.91.234.724.724 0 0 0-.39.65q0 .78 1.274 1.118l1.222.364q3.77 1.014 3.77 4.03a3.821 3.821 0 0 1-1.4 3.042 5.262 5.262 0 0 1-3.541 1.194Zm14.118-.13a5.4 5.4 0 0 1-3.666-1.2 4.4 4.4 0 0 1-1.378-3.51V73.12h-3.146V70h3.146v-3.9h3.562V70h3.926v3.12h-3.926v4.628a2.394 2.394 0 0 0 .481 1.677 1.974 1.974 0 0 0 1.495.507 3.766 3.766 0 0 0 1.796-.442l1.064 2.91a7 7 0 0 1-3.354.756ZM71.069 112V93.54h11.492v3.588h-7.722v3.8H81v3.588h-6.162v3.9h7.722V112Zm19.578.286a5.958 5.958 0 0 1-4.615-1.986 6.883 6.883 0 0 1-1.807-4.8 6.883 6.883 0 0 1 1.807-4.8 5.958 5.958 0 0 1 4.615-1.989 4.607 4.607 0 0 1 3.328 1.222V93.02h3.562V112h-3.562v-.962a4.5 4.5 0 0 1-3.328 1.248Zm.52-3.25a3.3 3.3 0 0 0 2.808-1.43v-4.238a3.314 3.314 0 0 0-2.808-1.4 2.984 2.984 0 0 0-2.34 1.027 3.649 3.649 0 0 0-.91 2.509 3.649 3.649 0 0 0 .91 2.509 2.984 2.984 0 0 0 2.34 1.023ZM112.825 99v13h-3.562v-1.04a4.25 4.25 0 0 1-3.2 1.326 4.886 4.886 0 0 1-3.863-1.573 6.069 6.069 0 0 1-1.391-4.173V99h3.562v6.942q0 3.094 2.444 3.094a2.843 2.843 0 0 0 2.444-1.482V99Zm9.49 13.286a6.753 6.753 0 0 1-4.9-1.937 6.489 6.489 0 0 1-1.99-4.849 6.489 6.489 0 0 1 1.989-4.849 6.753 6.753 0 0 1 4.9-1.937 6.779 6.779 0 0 1 3.653 1.027 6.753 6.753 0 0 1 2.509 2.717l-3.094 1.664a3.644 3.644 0 0 0-1.209-1.508 3.094 3.094 0 0 0-1.859-.572 3.131 3.131 0 0 0-2.353.988 3.424 3.424 0 0 0-.949 2.47 3.424 3.424 0 0 0 .949 2.47 3.131 3.131 0 0 0 2.353.988 3.094 3.094 0 0 0 1.859-.572 3.644 3.644 0 0 0 1.209-1.508l3.094 1.664a6.753 6.753 0 0 1-2.509 2.717 6.779 6.779 0 0 1-3.652 1.027Zm14.04 0a5.958 5.958 0 0 1-4.615-1.986 6.883 6.883 0 0 1-1.807-4.8 6.883 6.883 0 0 1 1.807-4.8 5.958 5.958 0 0 1 4.615-1.989 4.607 4.607 0 0 1 3.328 1.222V99h3.562v13h-3.562v-.962a4.5 4.5 0 0 1-3.328 1.248Zm.52-3.25a3.3 3.3 0 0 0 2.808-1.43v-4.238a3.314 3.314 0 0 0-2.808-1.4 2.984 2.984 0 0 0-2.34 1.027 3.914 3.914 0 0 0 0 5.018 2.984 2.984 0 0 0 2.34 1.023Zm16.64 3.12a5.4 5.4 0 0 1-3.666-1.2 4.4 4.4 0 0 1-1.378-3.51v-5.326h-3.146V99h3.146v-3.9h3.562V99h3.926v3.12h-3.926v4.628a2.394 2.394 0 0 0 .481 1.677 1.974 1.974 0 0 0 1.495.507 3.766 3.766 0 0 0 1.791-.442l1.069 2.91a7 7 0 0 1-3.354.756Zm6.994-14.768a2.192 2.192 0 0 1-1.586-.663 2.229 2.229 0 0 1 0-3.2 2.267 2.267 0 1 1 3.211 3.2 2.21 2.21 0 0 1-1.625.663ZM158.741 112V99h3.559v13Zm17.81-1.677a6.938 6.938 0 0 1-9.672 0 6.492 6.492 0 0 1-2-4.823 6.5 6.5 0 0 1 2-4.81 6.906 6.906 0 0 1 9.672 0 6.5 6.5 0 0 1 2 4.81 6.492 6.492 0 0 1-2 4.823Zm-4.836-1.365a3.038 3.038 0 0 0 2.3-.975 3.467 3.467 0 0 0 .923-2.483 3.467 3.467 0 0 0-.923-2.483 3.233 3.233 0 0 0-4.628 0 3.467 3.467 0 0 0-.923 2.483 3.467 3.467 0 0 0 .923 2.483 3.068 3.068 0 0 0 2.328.975Zm9.412 3.042V99h3.562v1.092a4.527 4.527 0 0 1 3.536-1.378 4.823 4.823 0 0 1 3.809 1.573 6.069 6.069 0 0 1 1.391 4.173V112h-3.562v-6.942a3.735 3.735 0 0 0-.611-2.275 2.112 2.112 0 0 0-1.807-.819 3.055 3.055 0 0 0-2.756 1.482V112Zm-99.762 29v-18.46H84.8l5.98 9.724 6.006-9.724h3.432V141h-3.77v-11.258l-4.394 7.15h-2.5l-4.42-7.176V141Zm27.924.286a5.958 5.958 0 0 1-4.615-1.986 6.883 6.883 0 0 1-1.807-4.8 6.883 6.883 0 0 1 1.807-4.8 5.958 5.958 0 0 1 4.615-1.989 4.607 4.607 0 0 1 3.328 1.222V128h3.562v13h-3.562v-.962a4.5 4.5 0 0 1-3.328 1.248Zm.52-3.25a3.3 3.3 0 0 0 2.808-1.43v-4.238a3.314 3.314 0 0 0-2.808-1.4 2.984 2.984 0 0 0-2.34 1.027 3.649 3.649 0 0 0-.91 2.509 3.649 3.649 0 0 0 .91 2.509 2.984 2.984 0 0 0 2.34 1.023Zm16.64 3.12a5.4 5.4 0 0 1-3.666-1.2 4.4 4.4 0 0 1-1.383-3.506v-5.33h-3.146V128h3.146v-3.9h3.562v3.9h3.926v3.12h-3.921v4.628a2.394 2.394 0 0 0 .481 1.677 1.974 1.974 0 0 0 1.495.507 3.766 3.766 0 0 0 1.794-.442l1.063 2.91a7 7 0 0 1-3.351.756Zm11.024.13a6.856 6.856 0 0 1-4.927-1.872 6.479 6.479 0 0 1-1.963-4.914 6.555 6.555 0 0 1 1.95-4.849 6.654 6.654 0 0 1 4.888-1.937 6.517 6.517 0 0 1 4.55 1.677 6.051 6.051 0 0 1 1.846 4.719 9.849 9.849 0 0 1-.052 1.222h-9.724a2.772 2.772 0 0 0 1.131 1.989 3.827 3.827 0 0 0 2.327.715 3.712 3.712 0 0 0 3.354-1.636l2.647 1.974a6.83 6.83 0 0 1-6.027 2.912Zm-3.3-8.372h6.082a2.619 2.619 0 0 0-1.055-1.69 3.21 3.21 0 0 0-1.885-.572 3.688 3.688 0 0 0-2 .572 2.513 2.513 0 0 0-1.144 1.69Zm12.27 8.086v-13H150v1.56a2.8 2.8 0 0 1 1.183-1.222 3.569 3.569 0 0 1 1.833-.494 4.445 4.445 0 0 1 1.508.234l-.546 3.354a2.912 2.912 0 0 0-1.092-.156 3.115 3.115 0 0 0-2.886 1.456V141Zm11.83-14.612a2.192 2.192 0 0 1-1.586-.663 2.229 2.229 0 0 1 0-3.2 2.266 2.266 0 1 1 1.586 3.861ZM156.5 141v-13h3.562v13Zm12.584.286a5.958 5.958 0 0 1-4.61-1.986 7.271 7.271 0 0 1 0-9.594 5.958 5.958 0 0 1 4.615-1.989 4.607 4.607 0 0 1 3.328 1.222V128h3.562v13h-3.562v-.962a4.5 4.5 0 0 1-3.328 1.248Zm.52-3.25a3.3 3.3 0 0 0 2.808-1.43v-4.238a3.314 3.314 0 0 0-2.808-1.4 2.984 2.984 0 0 0-2.34 1.027 3.914 3.914 0 0 0 0 5.018 2.984 2.984 0 0 0 2.345 1.023Zm9.807 2.964v-18.98h3.562V141Z" fill="#606060"/><g data-name="Group 131"><g data-name="Group 26" clip-path="url(#a)" fill="#41b8ea" fill-rule="evenodd"><path data-name="Path 152" d="m251.262 86.36 3.917-2.1a13.521 13.521 0 0 0 7.2-13.053l-.319-4.432-3.919 2.1a13.521 13.521 0 0 0-7.2 13.045Z"/><path data-name="Path 153" d="m245.917 122.329 4.4-.7a13.482 13.482 0 0 0 11.078-9.973l1.155-4.307-4.407.7a13.478 13.478 0 0 0-11.07 9.972Z"/><path data-name="Path 154" d="m228.936 153.571 4.376.851a13.487 13.487 0 0 0 13.822-5.582l2.561-3.655-4.385-.846a13.489 13.489 0 0 0-13.81 5.576Z"/><path data-name="Path 155" d="m202.368 177.018 3.732 2.39a13.5 13.5 0 0 0 14.907-.1l3.715-2.442-3.751-2.395a13.5 13.5 0 0 0-14.9.1Z"/><path data-name="Path 156" d="m243.676 52.081-2.115-3.858a13.519 13.519 0 0 0-13.131-7.057l-4.388.363 2.123 3.861a13.526 13.526 0 0 0 13.124 7.05Z"/><path data-name="Path 157" d="m250.456 86.311-.731-4.325a13.489 13.489 0 0 0-10.072-10.984l-4.253-1.1.737 4.333a13.488 13.488 0 0 0 10.069 10.978Z"/><path data-name="Path 158" d="m244.9 121.954.862-4.3a13.493 13.493 0 0 0-5.486-13.858l-3.582-2.549-.859 4.319a13.5 13.5 0 0 0 5.486 13.843Z"/><path data-name="Path 159" d="m228.213 152.952 2.245-3.8a13.49 13.49 0 0 0-.619-14.888l-2.545-3.6-2.245 3.8a13.5 13.5 0 0 0 .62 14.879Z"/><path data-name="Path 160" d="m201.567 176.483 3.488-2.729a13.486 13.486 0 0 0 4.855-14.091l-1.073-4.3-3.49 2.739a13.492 13.492 0 0 0-4.848 14.082Z"/><path data-name="Path 161" d="m236.723 35.678 2.366-3.718a13.494 13.494 0 0 0-.133-14.9l-2.433-3.678-2.363 3.727a13.512 13.512 0 0 0 .135 14.892Z"/><path data-name="Path 162" d="m249.279 68.809 3.517-2.69a13.49 13.49 0 0 0 4.99-14.046l-1.03-4.314-3.523 2.704a13.514 13.514 0 0 0-4.983 14.034Z"/><path data-name="Path 163" d="m250.219 104.359 4.21-1.434a13.48 13.48 0 0 0 9.216-11.719l.4-4.432-4.215 1.44a13.482 13.482 0 0 0-9.208 11.711Z"/><path data-name="Path 164" d="m238.614 138.77 4.456.13a13.488 13.488 0 0 0 12.734-7.747l1.937-4.024-4.466-.125a13.481 13.481 0 0 0-12.724 7.746Z"/><path data-name="Path 165" d="m216.608 166.605 4.146 1.612a13.566 13.566 0 0 0 14.595-3.034l3.161-3.134-4.152-1.612a13.565 13.565 0 0 0-14.586 3.037Z"/><path data-name="Path 166" d="m235.97 36.108-2.744-3.445a13.486 13.486 0 0 0-14.139-4.72l-4.275 1.107 2.758 3.453a13.485 13.485 0 0 0 14.134 4.714Z"/><path data-name="Path 167" d="m248.603 68.888-1.48-4.138a13.494 13.494 0 0 0-11.839-9.046l-4.385-.34 1.484 4.143a13.489 13.489 0 0 0 11.837 9.04Z"/><path data-name="Path 168" d="m249.227 104.164.079-4.381a13.49 13.49 0 0 0-7.876-12.653l-3.968-1.861-.082 4.386a13.474 13.474 0 0 0 7.874 12.648Z"/><path data-name="Path 169" d="m237.924 138.312 1.531-4.106a13.513 13.513 0 0 0-3.246-14.55l-3.132-3.07-1.533 4.114a13.512 13.512 0 0 0 3.248 14.544Z"/><path data-name="Path 170" d="m216.072 165.946 2.848-3.368a13.511 13.511 0 0 0 1.874-14.788l-1.919-3.975-2.851 3.377a13.52 13.52 0 0 0-1.869 14.777Z"/><path data-name="Path 171" d="m244.499 51.783 2.968-3.269A13.5 13.5 0 0 0 249.86 33.8l-1.777-4.043-2.97 3.275a13.5 13.5 0 0 0-2.387 14.7Z"/><path data-name="Path 172" d="m229.25 26.051-.657-4.668a11.327 11.327 0 0 0-8.222-9.449l-4.534-1.3.661 4.673a11.34 11.34 0 0 0 8.219 9.443Z"/><path data-name="Path 173" d="m12.786 86.358-3.917-2.1a13.526 13.526 0 0 1-7.2-13.053l.32-4.431 3.919 2.1a13.525 13.525 0 0 1 7.194 13.046Z"/><path data-name="Path 174" d="m18.127 122.328-4.4-.7a13.479 13.479 0 0 1-11.073-9.971l-1.156-4.307 4.409.7a13.48 13.48 0 0 1 11.068 9.972Z"/><path data-name="Path 175" d="m35.113 153.57-4.377.851a13.479 13.479 0 0 1-13.82-5.582l-2.562-3.656 4.385-.845a13.491 13.491 0 0 1 13.81 5.577Z"/><path data-name="Path 176" d="m61.679 177.018-3.731 2.389a13.5 13.5 0 0 1-14.908-.1l-3.714-2.442 3.751-2.394a13.494 13.494 0 0 1 14.9.1Z"/><path data-name="Path 177" d="m20.372 52.081 2.115-3.858a13.512 13.512 0 0 1 13.131-7.062l4.387.362-2.122 3.858a13.528 13.528 0 0 1-13.123 7.05Z"/><path data-name="Path 178" d="m13.592 86.309.731-4.324a13.487 13.487 0 0 1 10.073-10.983l4.252-1.1-.737 4.334A13.491 13.491 0 0 1 17.84 85.212Z"/><path data-name="Path 179" d="m19.148 121.952-.862-4.3a13.491 13.491 0 0 1 5.484-13.861l3.584-2.551.859 4.319a13.5 13.5 0 0 1-5.488 13.844Z"/><path data-name="Path 180" d="m35.834 152.951-2.245-3.794a13.492 13.492 0 0 1 .617-14.889l2.547-3.6 2.243 3.8a13.5 13.5 0 0 1-.619 14.879Z"/><path data-name="Path 181" d="m62.48 176.481-3.486-2.729a13.484 13.484 0 0 1-4.855-14.091l1.071-4.3 3.493 2.737a13.5 13.5 0 0 1 4.847 14.083Z"/><path data-name="Path 182" d="m27.323 35.677-2.363-3.718a13.5 13.5 0 0 1 .13-14.905l2.434-3.678 2.366 3.728a13.511 13.511 0 0 1-.136 14.891Z"/><path data-name="Path 183" d="m14.769 68.808-3.513-2.689a13.493 13.493 0 0 1-5-14.048l1.031-4.314 3.52 2.706a13.512 13.512 0 0 1 4.982 14.034Z"/><path data-name="Path 184" d="m13.83 104.357-4.212-1.433A13.481 13.481 0 0 1 .4 91.205L0 86.773l4.217 1.44a13.477 13.477 0 0 1 9.207 11.711Z"/><path data-name="Path 185" d="m25.433 138.77-4.455.128a13.492 13.492 0 0 1-12.734-7.747l-1.937-4.024 4.468-.125a13.484 13.484 0 0 1 12.724 7.743Z"/><path data-name="Path 186" d="m47.436 166.605-4.146 1.61a13.565 13.565 0 0 1-14.595-3.034l-3.159-3.132 4.153-1.613a13.568 13.568 0 0 1 14.585 3.037Z"/><path data-name="Path 187" d="m28.076 36.107 2.744-3.445a13.485 13.485 0 0 1 14.138-4.72l4.276 1.108-2.759 3.451a13.479 13.479 0 0 1-14.132 4.714Z"/><path data-name="Path 188" d="m15.446 68.887 1.484-4.138a13.494 13.494 0 0 1 11.839-9.046l4.385-.34-1.484 4.143a13.5 13.5 0 0 1-11.839 9.041Z"/><path data-name="Path 189" d="m14.821 104.162-.079-4.381a13.487 13.487 0 0 1 7.876-12.652l3.968-1.863.082 4.388a13.474 13.474 0 0 1-7.876 12.646Z"/><path data-name="Path 190" d="m26.124 138.313-1.533-4.107a13.515 13.515 0 0 1 3.245-14.551l3.132-3.07 1.533 4.114a13.511 13.511 0 0 1-3.249 14.544Z"/><path data-name="Path 191" d="m47.977 165.946-2.848-3.368a13.511 13.511 0 0 1-1.877-14.788l1.921-3.975 2.85 3.377a13.521 13.521 0 0 1 1.87 14.777Z"/><path data-name="Path 192" d="m19.548 51.782-2.967-3.269a13.5 13.5 0 0 1-2.395-14.714l1.779-4.045 2.97 3.275a13.5 13.5 0 0 1 2.387 14.7Z"/><path data-name="Path 193" d="m34.796 26.05.658-4.668a11.33 11.33 0 0 1 8.223-9.448l4.535-1.3-.663 4.674a11.334 11.334 0 0 1-8.219 9.441Z"/></g></g><g data-name="Group 144"><path data-name="Path 80369" d="M72.88 34v-2.64l6.094-5.874A3.778 3.778 0 0 0 80.338 23a1.852 1.852 0 0 0-.55-1.364 2.021 2.021 0 0 0-1.5-.55 2.291 2.291 0 0 0-1.584.616 3.221 3.221 0 0 0-.946 1.584l-2.926-.7a5.321 5.321 0 0 1 1.958-3.267 5.769 5.769 0 0 1 3.652-1.2 5.067 5.067 0 0 1 3.5 1.254 4.414 4.414 0 0 1 1.408 3.476 5.19 5.19 0 0 1-.638 2.629 11.087 11.087 0 0 1-1.934 2.362l-3.3 3.19h6.028V34Zm20.482 0-2.552-3.234L88.258 34h-3.63l4.272-5.39L84.738 23H88.3l2.486 3.366L93.274 23h3.586l-4.16 5.61L96.97 34Zm13.266 0-4.862-15.62h3.366l3.014 10.384 3.234-10.384h2.794l3.212 10.384 3.036-10.384h3.388L118.948 34h-2.86l-3.3-10.736-3.3 10.736Zm19.118 0V18.38h3.19V34Zm20.614 0h-2.75l-8.01-10.186V34h-3.19V18.38h2.75l8.01 10.186V18.38h3.19Zm17.424 0h-2.75l-8.008-10.186V34h-3.19V18.38h2.75l8.008 10.186V18.38h3.19Zm3.476 0V18.38h9.724v3.036h-6.534v3.212h5.214v3.036h-5.214v3.3h6.534V34Zm12.5 0V18.38h5.984a4.708 4.708 0 0 1 3.465 1.32 4.458 4.458 0 0 1 1.331 3.3 4 4 0 0 1-3.212 4.07l5.606 6.93h-3.85l-5.368-6.578h-.77V34Zm3.19-9.306h2.42a2.209 2.209 0 0 0 1.463-.451 1.533 1.533 0 0 0 .535-1.243 1.533 1.533 0 0 0-.539-1.243 2.209 2.209 0 0 0-1.463-.451h-2.42Z" fill="#606060"/><g data-name="Group 140"><g data-name="Group 77" fill="#606060"><path data-name="Path 57" d="m138.686 0-1.29 3.969h-4.172l3.372 2.451-1.289 3.967 3.375-2.452 3.375 2.452-1.284-3.967 3.375-2.452h-4.172Z"/><path data-name="Path 58" d="m125.461 0-1.29 3.969H120l3.375 2.452-1.289 3.967 3.375-2.452 3.375 2.452-1.29-3.967 3.375-2.452h-4.169Z"/></g></g></g></g></svg>