<svg xmlns="http://www.w3.org/2000/svg" width="264.047" height="215.278"><defs><clipPath id="a"><path data-name="Rectangle 7" fill="#41b8ea" d="M0 0h264.047v207.042H0z"/></clipPath></defs><g data-name="Compare Forex Broker"><path data-name="Path 1665" d="M109.436 15.884v-2.64l6.094-5.874a3.778 3.778 0 0 0 1.364-2.486 1.852 1.852 0 0 0-.55-1.364 2.021 2.021 0 0 0-1.5-.55 2.291 2.291 0 0 0-1.584.616 3.221 3.221 0 0 0-.946 1.584l-2.926-.7a5.321 5.321 0 0 1 1.958-3.267A5.769 5.769 0 0 1 115 0a5.067 5.067 0 0 1 3.5 1.254 4.414 4.414 0 0 1 1.408 3.476 5.19 5.19 0 0 1-.638 2.629 11.087 11.087 0 0 1-1.936 2.365l-3.3 3.19h6.028v2.97Zm18.634.242a5.5 5.5 0 0 1-4.2-1.738 6.241 6.241 0 0 1-1.63-4.444V6.16a6.212 6.212 0 0 1 1.628-4.422 5.5 5.5 0 0 1 4.2-1.738 5.472 5.472 0 0 1 4.18 1.738 6.212 6.212 0 0 1 1.63 4.422v3.784a6.241 6.241 0 0 1-1.628 4.44 5.472 5.472 0 0 1-4.18 1.742Zm-2.046-3.828a2.615 2.615 0 0 0 2.046.858 2.581 2.581 0 0 0 2.035-.858 3.428 3.428 0 0 0 .759-2.354V6.16a3.386 3.386 0 0 0-.759-2.343 2.6 2.6 0 0 0-2.035-.847 2.631 2.631 0 0 0-2.046.847 3.355 3.355 0 0 0-.77 2.343v3.784a3.4 3.4 0 0 0 .77 2.354Zm9.856 3.586v-2.64l6.094-5.874a3.778 3.778 0 0 0 1.364-2.486 1.852 1.852 0 0 0-.55-1.364 2.021 2.021 0 0 0-1.5-.55 2.291 2.291 0 0 0-1.584.616 3.221 3.221 0 0 0-.946 1.584l-2.926-.7a5.321 5.321 0 0 1 1.958-3.267 5.769 5.769 0 0 1 3.652-1.2 5.067 5.067 0 0 1 3.5 1.254 4.414 4.414 0 0 1 1.408 3.476 5.19 5.19 0 0 1-.638 2.629 11.087 11.087 0 0 1-1.934 2.362l-3.3 3.19h6.028v2.97Zm18.634.242a5.5 5.5 0 0 1-4.2-1.738 6.241 6.241 0 0 1-1.63-4.444V6.16a6.212 6.212 0 0 1 1.628-4.422 5.5 5.5 0 0 1 4.2-1.738 5.472 5.472 0 0 1 4.18 1.738 6.212 6.212 0 0 1 1.628 4.422v3.784a6.241 6.241 0 0 1-1.626 4.44 5.472 5.472 0 0 1-4.18 1.742Zm-2.046-3.828a2.615 2.615 0 0 0 2.046.858 2.581 2.581 0 0 0 2.035-.858 3.428 3.428 0 0 0 .759-2.354V6.16a3.386 3.386 0 0 0-.759-2.343 2.6 2.6 0 0 0-2.035-.847 2.631 2.631 0 0 0-2.046.847 3.355 3.355 0 0 0-.77 2.343v3.784a3.4 3.4 0 0 0 .77 2.354ZM87.282 41.884l6.732-15.62h2.838l6.754 15.62h-3.344l-1.518-3.564h-6.666l-1.496 3.564Zm8.14-11.418-2.156 5.06h4.29Zm12.122 11.418-4.862-15.62h3.366l3.014 10.384 3.238-10.384h2.794l3.206 10.384 3.036-10.384h3.388l-4.86 15.62H117l-3.3-10.736-3.3 10.736Zm16.28 0 6.732-15.62h2.838l6.754 15.62H136.8l-1.514-3.564h-6.666l-1.496 3.564Zm8.14-11.418-2.156 5.06h4.292Zm9.922 11.418v-15.62h5.984a4.708 4.708 0 0 1 3.465 1.32 4.458 4.458 0 0 1 1.331 3.3 4 4 0 0 1-3.212 4.07l5.61 6.93h-3.85l-5.368-6.578h-.77v6.578Zm3.19-9.306h2.424a2.209 2.209 0 0 0 1.463-.451 1.7 1.7 0 0 0 0-2.486 2.209 2.209 0 0 0-1.463-.451h-2.42Zm11.242 9.306v-15.62h5.148a7.868 7.868 0 0 1 5.7 2.266 7.433 7.433 0 0 1 2.334 5.544 7.433 7.433 0 0 1-2.332 5.544 7.868 7.868 0 0 1-5.702 2.266Zm3.19-2.926h1.958a4.586 4.586 0 0 0 3.476-1.408 4.845 4.845 0 0 0 1.342-3.476 4.845 4.845 0 0 0-1.342-3.476 4.586 4.586 0 0 0-3.476-1.408h-1.958Zm16.984 3.19a7.6 7.6 0 0 1-3.366-.737 5.613 5.613 0 0 1-2.354-2.057l2.464-2.046a4.142 4.142 0 0 0 1.474 1.353 3.878 3.878 0 0 0 1.892.495 2.567 2.567 0 0 0 1.529-.418 1.293 1.293 0 0 0 .583-1.1 1.517 1.517 0 0 0-.514-1.144 4.717 4.717 0 0 0-1.683-.88l-1.32-.462q-3.85-1.342-3.85-4.466a4.276 4.276 0 0 1 1.474-3.421A5.638 5.638 0 0 1 176.627 26a6.485 6.485 0 0 1 4.95 2.156l-2.137 2.178a3.4 3.4 0 0 0-2.772-1.342 2.853 2.853 0 0 0-1.474.363 1.132 1.132 0 0 0-.616 1.023 1.276 1.276 0 0 0 .528 1.078 7.755 7.755 0 0 0 1.87.88l1.254.462q3.74 1.408 3.718 4.642a4.277 4.277 0 0 1-1.518 3.4 5.816 5.816 0 0 1-3.938 1.308Z" fill="#606060"/><g data-name="Group 16" transform="translate(0 6.884)" clip-path="url(#a)" fill="#41b8ea" fill-rule="evenodd"><path data-name="Path 62" d="m251.262 86.36 3.917-2.1a13.521 13.521 0 0 0 7.2-13.053l-.319-4.432-3.919 2.1a13.521 13.521 0 0 0-7.2 13.045Z"/><path data-name="Path 63" d="m245.917 122.329 4.4-.7a13.482 13.482 0 0 0 11.078-9.973l1.155-4.307-4.407.7a13.478 13.478 0 0 0-11.07 9.972Z"/><path data-name="Path 64" d="m228.936 153.571 4.376.851a13.487 13.487 0 0 0 13.822-5.582l2.561-3.655-4.385-.846a13.489 13.489 0 0 0-13.81 5.576Z"/><path data-name="Path 65" d="m202.368 177.018 3.732 2.39a13.5 13.5 0 0 0 14.907-.1l3.715-2.442-3.751-2.395a13.5 13.5 0 0 0-14.9.1Z"/><path data-name="Path 66" d="m243.676 52.081-2.115-3.858a13.519 13.519 0 0 0-13.131-7.057l-4.388.363 2.123 3.861a13.526 13.526 0 0 0 13.124 7.05Z"/><path data-name="Path 67" d="m250.456 86.311-.731-4.325a13.489 13.489 0 0 0-10.072-10.984l-4.253-1.1.737 4.333a13.488 13.488 0 0 0 10.069 10.978Z"/><path data-name="Path 68" d="m244.9 121.954.862-4.3a13.493 13.493 0 0 0-5.486-13.858l-3.582-2.549-.859 4.319a13.5 13.5 0 0 0 5.486 13.843Z"/><path data-name="Path 69" d="m228.213 152.952 2.245-3.8a13.49 13.49 0 0 0-.619-14.888l-2.545-3.6-2.245 3.8a13.5 13.5 0 0 0 .62 14.879Z"/><path data-name="Path 70" d="m201.567 176.483 3.488-2.729a13.486 13.486 0 0 0 4.855-14.091l-1.073-4.3-3.49 2.739a13.492 13.492 0 0 0-4.848 14.082Z"/><path data-name="Path 71" d="m236.723 35.678 2.366-3.718a13.494 13.494 0 0 0-.133-14.9l-2.433-3.678-2.363 3.727a13.512 13.512 0 0 0 .135 14.892Z"/><path data-name="Path 72" d="m249.279 68.809 3.517-2.69a13.49 13.49 0 0 0 4.99-14.046l-1.03-4.314-3.523 2.704a13.514 13.514 0 0 0-4.983 14.034Z"/><path data-name="Path 73" d="m250.219 104.359 4.21-1.434a13.48 13.48 0 0 0 9.216-11.719l.4-4.432-4.215 1.44a13.482 13.482 0 0 0-9.208 11.711Z"/><path data-name="Path 74" d="m238.614 138.77 4.456.13a13.488 13.488 0 0 0 12.734-7.747l1.937-4.024-4.466-.125a13.481 13.481 0 0 0-12.724 7.746Z"/><path data-name="Path 75" d="m216.608 166.605 4.146 1.612a13.566 13.566 0 0 0 14.595-3.034l3.161-3.134-4.152-1.612a13.565 13.565 0 0 0-14.586 3.037Z"/><path data-name="Path 76" d="m235.97 36.108-2.744-3.445a13.486 13.486 0 0 0-14.139-4.72l-4.275 1.107 2.758 3.453a13.485 13.485 0 0 0 14.134 4.714Z"/><path data-name="Path 77" d="m248.603 68.888-1.48-4.138a13.494 13.494 0 0 0-11.839-9.046l-4.385-.34 1.484 4.143a13.489 13.489 0 0 0 11.837 9.04Z"/><path data-name="Path 78" d="m249.227 104.164.079-4.381a13.49 13.49 0 0 0-7.876-12.653l-3.968-1.861-.082 4.386a13.474 13.474 0 0 0 7.874 12.648Z"/><path data-name="Path 79" d="m237.924 138.312 1.531-4.106a13.513 13.513 0 0 0-3.246-14.55l-3.132-3.07-1.533 4.114a13.512 13.512 0 0 0 3.248 14.544Z"/><path data-name="Path 80" d="m216.072 165.946 2.848-3.368a13.511 13.511 0 0 0 1.874-14.788l-1.919-3.975-2.851 3.377a13.52 13.52 0 0 0-1.869 14.777Z"/><path data-name="Path 81" d="m244.499 51.783 2.968-3.269A13.5 13.5 0 0 0 249.86 33.8l-1.777-4.043-2.97 3.275a13.5 13.5 0 0 0-2.387 14.7Z"/><path data-name="Path 82" d="m229.25 26.051-.657-4.668a11.327 11.327 0 0 0-8.222-9.449l-4.534-1.3.661 4.673a11.34 11.34 0 0 0 8.219 9.443Z"/><path data-name="Path 83" d="m12.786 86.358-3.917-2.1a13.526 13.526 0 0 1-7.2-13.053l.32-4.431 3.919 2.1a13.525 13.525 0 0 1 7.194 13.046Z"/><path data-name="Path 84" d="m18.127 122.328-4.4-.7a13.479 13.479 0 0 1-11.073-9.971l-1.156-4.307 4.409.7a13.48 13.48 0 0 1 11.068 9.972Z"/><path data-name="Path 85" d="m35.113 153.57-4.377.851a13.479 13.479 0 0 1-13.82-5.582l-2.562-3.656 4.385-.845a13.491 13.491 0 0 1 13.81 5.577Z"/><path data-name="Path 86" d="m61.679 177.018-3.731 2.389a13.5 13.5 0 0 1-14.908-.1l-3.714-2.442 3.751-2.394a13.494 13.494 0 0 1 14.9.1Z"/><path data-name="Path 87" d="m20.372 52.081 2.115-3.858a13.512 13.512 0 0 1 13.131-7.062l4.387.362-2.122 3.858a13.528 13.528 0 0 1-13.123 7.05Z"/><path data-name="Path 88" d="m13.592 86.309.731-4.324a13.487 13.487 0 0 1 10.073-10.983l4.252-1.1-.737 4.334A13.491 13.491 0 0 1 17.84 85.212Z"/><path data-name="Path 89" d="m19.148 121.952-.862-4.3a13.491 13.491 0 0 1 5.484-13.861l3.584-2.551.859 4.319a13.5 13.5 0 0 1-5.488 13.844Z"/><path data-name="Path 90" d="m35.834 152.951-2.245-3.794a13.492 13.492 0 0 1 .617-14.889l2.547-3.6 2.243 3.8a13.5 13.5 0 0 1-.619 14.879Z"/><path data-name="Path 91" d="m62.48 176.481-3.486-2.729a13.484 13.484 0 0 1-4.855-14.091l1.071-4.3 3.493 2.737a13.5 13.5 0 0 1 4.847 14.083Z"/><path data-name="Path 92" d="m27.323 35.677-2.363-3.718a13.5 13.5 0 0 1 .13-14.905l2.434-3.678 2.366 3.728a13.511 13.511 0 0 1-.136 14.891Z"/><path data-name="Path 93" d="m14.769 68.808-3.513-2.689a13.493 13.493 0 0 1-5-14.048l1.031-4.314 3.52 2.706a13.512 13.512 0 0 1 4.982 14.034Z"/><path data-name="Path 94" d="m13.83 104.357-4.212-1.433A13.481 13.481 0 0 1 .4 91.205L0 86.773l4.217 1.44a13.477 13.477 0 0 1 9.207 11.711Z"/><path data-name="Path 95" d="m25.433 138.77-4.455.128a13.492 13.492 0 0 1-12.734-7.747l-1.937-4.024 4.468-.125a13.484 13.484 0 0 1 12.724 7.743Z"/><path data-name="Path 96" d="m47.436 166.605-4.146 1.61a13.565 13.565 0 0 1-14.595-3.034l-3.159-3.132 4.153-1.613a13.568 13.568 0 0 1 14.585 3.037Z"/><path data-name="Path 97" d="m28.076 36.107 2.744-3.445a13.485 13.485 0 0 1 14.138-4.72l4.276 1.108-2.759 3.451a13.479 13.479 0 0 1-14.132 4.714Z"/><path data-name="Path 98" d="m15.446 68.887 1.484-4.138a13.494 13.494 0 0 1 11.839-9.046l4.385-.34-1.484 4.143a13.5 13.5 0 0 1-11.839 9.041Z"/><path data-name="Path 99" d="m14.821 104.162-.079-4.381a13.487 13.487 0 0 1 7.876-12.652l3.968-1.863.082 4.388a13.474 13.474 0 0 1-7.876 12.646Z"/><path data-name="Path 100" d="m26.124 138.313-1.533-4.107a13.515 13.515 0 0 1 3.245-14.551l3.132-3.07 1.533 4.114a13.511 13.511 0 0 1-3.249 14.544Z"/><path data-name="Path 101" d="m47.977 165.946-2.848-3.368a13.511 13.511 0 0 1-1.877-14.788l1.921-3.975 2.85 3.377a13.521 13.521 0 0 1 1.87 14.777Z"/><path data-name="Path 102" d="m19.548 51.782-2.967-3.269a13.5 13.5 0 0 1-2.395-14.714l1.779-4.045 2.97 3.275a13.5 13.5 0 0 1 2.387 14.7Z"/><path data-name="Path 103" d="m34.796 26.05.658-4.668a11.33 11.33 0 0 1 8.223-9.448l4.535-1.3-.663 4.674a11.334 11.334 0 0 1-8.219 9.441Z"/></g><path data-name="Path 1664" d="M85.148 90.196a9.194 9.194 0 0 1-6.747-2.8 9.194 9.194 0 0 1-2.795-6.742 9.194 9.194 0 0 1 2.794-6.747 9.194 9.194 0 0 1 6.747-2.8 9.8 9.8 0 0 1 5.044 1.339 9.023 9.023 0 0 1 3.484 3.575l-3.276 1.82a5.767 5.767 0 0 0-5.252-3.094 5.458 5.458 0 0 0-4.068 1.737 5.776 5.776 0 0 0-1.679 4.17 5.776 5.776 0 0 0 1.677 4.173 5.458 5.458 0 0 0 4.069 1.729 5.767 5.767 0 0 0 5.254-3.094l3.276 1.82a8.938 8.938 0 0 1-3.458 3.588 9.838 9.838 0 0 1-5.07 1.326Zm21.606-1.989a6.655 6.655 0 0 1-4.836 1.963 6.655 6.655 0 0 1-4.836-1.963 6.492 6.492 0 0 1-2-4.823 6.5 6.5 0 0 1 2-4.81 6.633 6.633 0 0 1 4.836-1.976 6.633 6.633 0 0 1 4.836 1.976 6.5 6.5 0 0 1 2 4.81 6.492 6.492 0 0 1-2 4.823Zm-4.836-1.365a3.038 3.038 0 0 0 2.3-.975 3.467 3.467 0 0 0 .924-2.483 3.467 3.467 0 0 0-.923-2.483 3.038 3.038 0 0 0-2.3-.975 3.068 3.068 0 0 0-2.327.975 3.467 3.467 0 0 0-.924 2.483 3.467 3.467 0 0 0 .923 2.483 3.068 3.068 0 0 0 2.327.975Zm25.792 3.042V83.02q0-3.146-2.236-3.146a2.646 2.646 0 0 0-2.5 1.534 4.322 4.322 0 0 1 .1.988v7.488h-3.554V83.02q0-3.146-2.236-3.146a2.751 2.751 0 0 0-1.4.377 2.549 2.549 0 0 0-.988 1v8.633h-3.566v-13h3.562v1.014a4 4 0 0 1 3.172-1.3 4.606 4.606 0 0 1 3.666 1.716 5.3 5.3 0 0 1 4.238-1.716 4.859 4.859 0 0 1 3.965 1.612 6.334 6.334 0 0 1 1.339 4.186v7.488Zm6.838 5.044V76.884h3.562v.936a4.607 4.607 0 0 1 3.328-1.222 5.958 5.958 0 0 1 4.615 1.986 6.883 6.883 0 0 1 1.807 4.8 6.883 6.883 0 0 1-1.807 4.8 5.958 5.958 0 0 1-4.615 1.986 4.5 4.5 0 0 1-3.328-1.248v6.006Zm6.37-8.008a3.013 3.013 0 0 0 2.366-1.027 3.649 3.649 0 0 0 .91-2.509 3.649 3.649 0 0 0-.91-2.509 3.013 3.013 0 0 0-2.366-1.027 3.314 3.314 0 0 0-2.808 1.4v4.238a3.3 3.3 0 0 0 2.808 1.434Zm15.158 3.25a5.958 5.958 0 0 1-4.615-1.986 6.883 6.883 0 0 1-1.807-4.8 6.883 6.883 0 0 1 1.807-4.8 5.958 5.958 0 0 1 4.615-1.989 4.607 4.607 0 0 1 3.324 1.225v-.936h3.562v13H159.4v-.962a4.5 4.5 0 0 1-3.324 1.248Zm.52-3.25a3.3 3.3 0 0 0 2.804-1.43v-4.238a3.314 3.314 0 0 0-2.808-1.4 2.984 2.984 0 0 0-2.34 1.027 3.649 3.649 0 0 0-.91 2.509 3.649 3.649 0 0 0 .91 2.509 2.984 2.984 0 0 0 2.348 1.023Zm9.804 2.964v-13h3.56v1.56a2.8 2.8 0 0 1 1.183-1.222 3.569 3.569 0 0 1 1.833-.494 4.445 4.445 0 0 1 1.508.234l-.546 3.354a2.912 2.912 0 0 0-1.092-.156 3.115 3.115 0 0 0-2.886 1.456v8.268Zm15.7.286a6.856 6.856 0 0 1-4.927-1.872 6.479 6.479 0 0 1-1.961-4.914 6.555 6.555 0 0 1 1.95-4.849 6.654 6.654 0 0 1 4.888-1.937 6.517 6.517 0 0 1 4.55 1.677 6.051 6.051 0 0 1 1.846 4.719 9.85 9.85 0 0 1-.052 1.222h-9.724a2.772 2.772 0 0 0 1.13 1.989 3.827 3.827 0 0 0 2.327.715 3.712 3.712 0 0 0 3.355-1.636l2.652 1.976a6.83 6.83 0 0 1-6.034 2.91Zm-3.3-8.372h6.084a2.619 2.619 0 0 0-1.053-1.69 3.21 3.21 0 0 0-1.885-.572 3.688 3.688 0 0 0-2 .572 2.513 2.513 0 0 0-1.146 1.69Zm-78.247 37.086v-18.46h11.232v3.588h-7.462v3.822h5.85v3.588h-5.85v7.462Zm23.3-1.677a6.655 6.655 0 0 1-4.836 1.963 6.655 6.655 0 0 1-4.836-1.963 6.492 6.492 0 0 1-2-4.823 6.5 6.5 0 0 1 2-4.81 6.633 6.633 0 0 1 4.836-1.976 6.633 6.633 0 0 1 4.832 1.976 6.5 6.5 0 0 1 2 4.81 6.492 6.492 0 0 1-2 4.823Zm-4.836-1.365a3.038 3.038 0 0 0 2.3-.975 3.467 3.467 0 0 0 .92-2.483 3.467 3.467 0 0 0-.923-2.483 3.038 3.038 0 0 0-2.3-.975 3.068 3.068 0 0 0-2.327.975 3.467 3.467 0 0 0-.923 2.483 3.467 3.467 0 0 0 .923 2.483 3.068 3.068 0 0 0 2.326.975Zm9.408 3.042v-13h3.562v1.56a2.8 2.8 0 0 1 1.183-1.222 3.569 3.569 0 0 1 1.83-.494 4.445 4.445 0 0 1 1.508.234l-.546 3.354a2.912 2.912 0 0 0-1.092-.156 3.115 3.115 0 0 0-2.883 1.456v8.268Zm15.7.286a6.856 6.856 0 0 1-4.925-1.872 6.479 6.479 0 0 1-1.961-4.914 6.555 6.555 0 0 1 1.95-4.849 6.654 6.654 0 0 1 4.888-1.937 6.517 6.517 0 0 1 4.55 1.677 6.051 6.051 0 0 1 1.846 4.719 9.849 9.849 0 0 1-.052 1.222H140.7a2.771 2.771 0 0 0 1.131 1.989 3.827 3.827 0 0 0 2.327.715 3.712 3.712 0 0 0 3.351-1.636l2.652 1.976a6.83 6.83 0 0 1-6.032 2.91Zm-3.3-8.372h6.084a2.619 2.619 0 0 0-1.053-1.69 3.21 3.21 0 0 0-1.885-.572 3.688 3.688 0 0 0-2 .572 2.513 2.513 0 0 0-1.144 1.69Zm20.334 8.086-3.016-3.822-3.016 3.822h-4.29l5.044-6.37-4.914-6.63h4.212l2.938 3.978 2.938-3.978h4.238l-4.914 6.63 5.044 6.37Zm-67.171 29v-18.46h6.76a5.324 5.324 0 0 1 3.9 1.573 5.137 5.137 0 0 1 1.586 3.787 4.232 4.232 0 0 1-1.456 3.3 4.549 4.549 0 0 1 2.73 4.368 5.133 5.133 0 0 1-1.638 3.872 5.687 5.687 0 0 1-4.082 1.56Zm3.77-3.458h3.77a2.372 2.372 0 0 0 1.69-.585 1.99 1.99 0 0 0 .624-1.521 2.031 2.031 0 0 0-.624-1.534 2.341 2.341 0 0 0-1.69-.6h-3.77Zm0-7.436h2.626a2.17 2.17 0 0 0 1.586-.585 1.97 1.97 0 0 0 .6-1.469 2 2 0 0 0-.611-1.469 2.129 2.129 0 0 0-1.573-.611H97.76ZM110 147.884v-13h3.562v1.56a2.8 2.8 0 0 1 1.183-1.222 3.569 3.569 0 0 1 1.833-.494 4.445 4.445 0 0 1 1.508.234l-.546 3.354a2.912 2.912 0 0 0-1.092-.156 3.115 3.115 0 0 0-2.886 1.456v8.268Zm20.462-1.677a6.655 6.655 0 0 1-4.832 1.963 6.655 6.655 0 0 1-4.836-1.963 6.492 6.492 0 0 1-2-4.823 6.5 6.5 0 0 1 2-4.81 6.633 6.633 0 0 1 4.836-1.976 6.633 6.633 0 0 1 4.836 1.976 6.5 6.5 0 0 1 2 4.81 6.492 6.492 0 0 1-2 4.823Zm-4.832-1.365a3.038 3.038 0 0 0 2.3-.975 3.467 3.467 0 0 0 .924-2.483 3.467 3.467 0 0 0-.923-2.483 3.038 3.038 0 0 0-2.3-.975 3.068 3.068 0 0 0-2.327.975 3.467 3.467 0 0 0-.924 2.483 3.467 3.467 0 0 0 .92 2.483 3.068 3.068 0 0 0 2.33.975Zm18.278 3.042-5.308-5.98v5.98h-3.558v-18.98h3.558v10.764l4.216-4.784h4.29l-5.148 5.85 6.342 7.15Zm10.842.286a6.856 6.856 0 0 1-4.927-1.872 6.479 6.479 0 0 1-1.963-4.914 6.555 6.555 0 0 1 1.95-4.849 6.654 6.654 0 0 1 4.89-1.937 6.517 6.517 0 0 1 4.55 1.677 6.051 6.051 0 0 1 1.846 4.719 9.849 9.849 0 0 1-.052 1.222h-9.726a2.772 2.772 0 0 0 1.131 1.989 3.827 3.827 0 0 0 2.327.715 3.712 3.712 0 0 0 3.354-1.636l2.652 1.976a6.83 6.83 0 0 1-6.032 2.91Zm-3.3-8.372h6.084a2.619 2.619 0 0 0-1.053-1.69 3.21 3.21 0 0 0-1.885-.572 3.688 3.688 0 0 0-2 .572 2.513 2.513 0 0 0-1.148 1.69Zm12.27 8.086v-13h3.562v1.56a2.8 2.8 0 0 1 1.183-1.222 3.569 3.569 0 0 1 1.833-.494 4.445 4.445 0 0 1 1.508.234l-.546 3.354a2.912 2.912 0 0 0-1.092-.156 3.115 3.115 0 0 0-2.886 1.456v8.268Z" fill="#606060"/><path data-name="Path 1663" d="M79.576 198.086v-11.36h3.584a3.5 3.5 0 0 1 2.48.848 2.713 2.713 0 0 1 .912 2.064 2.583 2.583 0 0 1-1.3 2.416 2.676 2.676 0 0 1 2.048 2.72 3.019 3.019 0 0 1-1.06 2.384 4.143 4.143 0 0 1-2.824.928Zm1.216-1.1h2.752a2.8 2.8 0 0 0 1.9-.576 1.943 1.943 0 0 0 .656-1.54 1.978 1.978 0 0 0-.648-1.544 2.745 2.745 0 0 0-1.9-.584h-2.768Zm0-5.3h2.448a2.153 2.153 0 0 0 1.552-.536 1.83 1.83 0 0 0 .56-1.384 1.865 1.865 0 0 0-.568-1.368 2.086 2.086 0 0 0-1.544-.568h-2.448Zm11.76 6.56a3.923 3.923 0 0 1-2.976-1.192 4.134 4.134 0 0 1-1.136-2.968 4.079 4.079 0 0 1 1.168-2.96 3.974 3.974 0 0 1 2.976-1.2 3.618 3.618 0 0 1 2.688 1.088 4.034 4.034 0 0 1 1.072 2.96v.3h-6.752a2.849 2.849 0 0 0 .832 2.088 2.867 2.867 0 0 0 2.128.84 2.985 2.985 0 0 0 1.576-.376 3.2 3.2 0 0 0 1.064-1.128l.912.592a3.819 3.819 0 0 1-3.552 1.956Zm-2.864-4.96h5.488a2.68 2.68 0 0 0-.88-1.7 2.594 2.594 0 0 0-1.76-.624 2.918 2.918 0 0 0-1.848.632 2.673 2.673 0 0 0-1 1.692Zm10.736 4.96a3.683 3.683 0 0 1-1.96-.5 2.63 2.63 0 0 1-1.144-1.468l1.008-.416a1.742 1.742 0 0 0 .792 1.008 2.476 2.476 0 0 0 1.32.368 1.81 1.81 0 0 0 1.112-.328 1.065 1.065 0 0 0 .44-.9 1.072 1.072 0 0 0-.344-.808 3.161 3.161 0 0 0-1.16-.6l-.864-.272a2.3 2.3 0 0 1-1.924-2.276 1.847 1.847 0 0 1 .76-1.552 3.075 3.075 0 0 1 1.912-.576 2.733 2.733 0 0 1 2.592 1.408l-.9.56a2 2 0 0 0-1.76-.976 1.774 1.774 0 0 0-1.04.312.921.921 0 0 0-.448.776q0 .9 1.248 1.3l.912.288q2.128.672 2.128 2.32a2.11 2.11 0 0 1-.744 1.72 2.949 2.949 0 0 1-1.936.612Zm7.616-.08a2.4 2.4 0 0 1-1.656-.592 2.174 2.174 0 0 1-.664-1.712v-4.72h-2.032v-1.056h2.032v-2.224h1.12v2.224h2.5v1.056h-2.5v4.624a1.382 1.382 0 0 0 .36 1.056 1.317 1.317 0 0 0 .936.336 2.387 2.387 0 0 0 1.184-.3l.336.96a3.443 3.443 0 0 1-1.616.348Zm6.688-.08v-11.36h3.584a3.5 3.5 0 0 1 2.48.848 2.713 2.713 0 0 1 .908 2.064 2.583 2.583 0 0 1-1.3 2.416 2.676 2.676 0 0 1 2.048 2.72 3.019 3.019 0 0 1-1.056 2.384 4.143 4.143 0 0 1-2.824.928Zm1.216-1.1h2.756a2.8 2.8 0 0 0 1.9-.576 1.943 1.943 0 0 0 .656-1.536 1.978 1.978 0 0 0-.648-1.544 2.745 2.745 0 0 0-1.9-.584h-2.768Zm0-5.3h2.448a2.153 2.153 0 0 0 1.552-.536 1.83 1.83 0 0 0 .556-1.384 1.865 1.865 0 0 0-.568-1.368 2.086 2.086 0 0 0-1.544-.568h-2.448Zm8.3 6.4v-8h1.12v1.248a2.375 2.375 0 0 1 .9-.936 2.481 2.481 0 0 1 1.344-.392 2.9 2.9 0 0 1 .656.064l-.144 1.152a2.282 2.282 0 0 0-.688-.1 1.95 1.95 0 0 0-1.264.472 2.446 2.446 0 0 0-.8 1.272v5.22Zm11.476-1.048a4.013 4.013 0 0 1-2.992 1.208 4.013 4.013 0 0 1-2.992-1.208 4.058 4.058 0 0 1-1.184-2.952 4.058 4.058 0 0 1 1.184-2.952 4.013 4.013 0 0 1 2.992-1.208 4.013 4.013 0 0 1 2.992 1.208 4.058 4.058 0 0 1 1.18 2.952 4.058 4.058 0 0 1-1.18 2.952Zm-5.176-.736a2.844 2.844 0 0 0 2.184.9 2.844 2.844 0 0 0 2.184-.9 3.135 3.135 0 0 0 .84-2.216 3.135 3.135 0 0 0-.84-2.216 2.844 2.844 0 0 0-2.184-.9 2.844 2.844 0 0 0-2.184.9 3.135 3.135 0 0 0-.844 2.216 3.135 3.135 0 0 0 .844 2.216Zm13.896 1.784-4.656-4.08v4.08h-1.12v-11.68h1.12v6.832l3.76-3.152h1.584l-4.208 3.52 5.12 4.48Zm5.376.16a3.923 3.923 0 0 1-2.976-1.192 4.134 4.134 0 0 1-1.14-2.968 4.079 4.079 0 0 1 1.168-2.96 3.974 3.974 0 0 1 2.976-1.2 3.618 3.618 0 0 1 2.688 1.088 4.034 4.034 0 0 1 1.072 2.96v.3h-6.748a2.849 2.849 0 0 0 .832 2.088 2.867 2.867 0 0 0 2.128.84 2.985 2.985 0 0 0 1.576-.376 3.2 3.2 0 0 0 1.064-1.128l.912.592a3.819 3.819 0 0 1-3.552 1.956Zm-2.864-4.96h5.488a2.68 2.68 0 0 0-.88-1.7 2.594 2.594 0 0 0-1.76-.62 2.918 2.918 0 0 0-1.848.632 2.673 2.673 0 0 0-1 1.688Zm8.4 4.8v-8h1.12v1.248a2.375 2.375 0 0 1 .9-.936 2.481 2.481 0 0 1 1.344-.392 2.9 2.9 0 0 1 .656.064l-.144 1.152a2.282 2.282 0 0 0-.688-.1 1.95 1.95 0 0 0-1.264.472 2.446 2.446 0 0 0-.8 1.272v5.22Zm8.948 0v-6.944h-1.876v-1.056h1.876v-1.344a2.378 2.378 0 0 1 .664-1.784 2.4 2.4 0 0 1 1.752-.648 3.073 3.073 0 0 1 1.552.384l-.432.944a2.719 2.719 0 0 0-1.12-.288 1.189 1.189 0 0 0-.952.4 1.613 1.613 0 0 0-.344 1.088v1.248h2.736v1.056h-2.74v6.944Zm11.36-1.048a4.013 4.013 0 0 1-2.996 1.208 4.013 4.013 0 0 1-2.992-1.208 4.058 4.058 0 0 1-1.184-2.952 4.058 4.058 0 0 1 1.184-2.952 4.013 4.013 0 0 1 2.992-1.208 4.013 4.013 0 0 1 2.992 1.208 4.058 4.058 0 0 1 1.184 2.952 4.058 4.058 0 0 1-1.184 2.952Zm-5.18-.736a2.844 2.844 0 0 0 2.184.9 2.844 2.844 0 0 0 2.184-.9 3.135 3.135 0 0 0 .84-2.216 3.135 3.135 0 0 0-.84-2.216 2.844 2.844 0 0 0-2.184-.9 2.844 2.844 0 0 0-2.184.9 3.135 3.135 0 0 0-.84 2.216 3.135 3.135 0 0 0 .84 2.216Zm8.12 1.784v-8h1.12v1.248a2.375 2.375 0 0 1 .9-.936 2.481 2.481 0 0 1 1.34-.392 2.9 2.9 0 0 1 .656.064l-.144 1.152a2.282 2.282 0 0 0-.688-.1 1.95 1.95 0 0 0-1.264.472 2.446 2.446 0 0 0-.8 1.272v5.22ZM75.272 215.278a5.683 5.683 0 0 1-4.172-1.692 5.662 5.662 0 0 1-1.7-4.176 5.662 5.662 0 0 1 1.7-4.176 5.683 5.683 0 0 1 4.168-1.7 5.817 5.817 0 0 1 2.848.712 5.776 5.776 0 0 1 2.1 1.944l-1.008.64a4.555 4.555 0 0 0-1.648-1.568 4.585 4.585 0 0 0-2.288-.576 4.434 4.434 0 0 0-3.3 1.368 4.615 4.615 0 0 0-1.336 3.352 4.607 4.607 0 0 0 1.336 3.36 4.447 4.447 0 0 0 3.3 1.36 4.585 4.585 0 0 0 2.288-.576 4.555 4.555 0 0 0 1.648-1.564l1.008.64a5.776 5.776 0 0 1-2.1 1.944 5.817 5.817 0 0 1-2.844.708Zm12.976-8.192v8h-1.12v-1.12a2.611 2.611 0 0 1-1.1.96 3.359 3.359 0 0 1-1.448.32 2.794 2.794 0 0 1-2.1-.856 3.171 3.171 0 0 1-.824-2.3v-5.004h1.12v4.848a2.35 2.35 0 0 0 .56 1.68 1.972 1.972 0 0 0 1.5.592 2.19 2.19 0 0 0 1.44-.488 2.682 2.682 0 0 0 .848-1.3v-5.332Zm4.768 8.16a3.683 3.683 0 0 1-1.96-.5 2.63 2.63 0 0 1-1.144-1.464l1.008-.416a1.742 1.742 0 0 0 .792 1.008 2.476 2.476 0 0 0 1.32.368 1.81 1.81 0 0 0 1.112-.328 1.065 1.065 0 0 0 .44-.9 1.072 1.072 0 0 0-.344-.808 3.161 3.161 0 0 0-1.16-.6l-.864-.272a2.3 2.3 0 0 1-1.92-2.272 1.847 1.847 0 0 1 .76-1.552 3.075 3.075 0 0 1 1.912-.576 2.733 2.733 0 0 1 2.592 1.408l-.9.56a2 2 0 0 0-1.76-.976 1.774 1.774 0 0 0-1.04.312.921.921 0 0 0-.448.776q0 .9 1.248 1.3l.912.288q2.128.672 2.128 2.32a2.11 2.11 0 0 1-.744 1.72 2.949 2.949 0 0 1-1.94.604Zm7.616-.08a2.4 2.4 0 0 1-1.656-.592 2.174 2.174 0 0 1-.664-1.712v-4.72H96.28v-1.056h2.032v-2.224h1.12v2.224h2.5v1.056h-2.5v4.624a1.382 1.382 0 0 0 .36 1.056 1.317 1.317 0 0 0 .936.336 2.387 2.387 0 0 0 1.184-.3l.336.96a3.443 3.443 0 0 1-1.616.348Zm9.248-1.128a4.013 4.013 0 0 1-2.992 1.208 4.013 4.013 0 0 1-2.988-1.208 4.058 4.058 0 0 1-1.188-2.952 4.058 4.058 0 0 1 1.188-2.952 4.013 4.013 0 0 1 2.988-1.208 4.013 4.013 0 0 1 2.992 1.208 4.058 4.058 0 0 1 1.184 2.952 4.058 4.058 0 0 1-1.184 2.952Zm-5.176-.736a2.844 2.844 0 0 0 2.184.9 2.844 2.844 0 0 0 2.184-.9 3.135 3.135 0 0 0 .84-2.216 3.135 3.135 0 0 0-.84-2.216 2.844 2.844 0 0 0-2.184-.9 2.844 2.844 0 0 0-2.184.9 3.135 3.135 0 0 0-.84 2.216 3.135 3.135 0 0 0 .836 2.216Zm18.488 1.784v-4.832a2.478 2.478 0 0 0-.528-1.68 1.79 1.79 0 0 0-1.424-.608 2.009 2.009 0 0 0-1.352.472 2.614 2.614 0 0 0-.788 1.288 2.646 2.646 0 0 1 .032.352v5.008h-1.12v-4.832a2.478 2.478 0 0 0-.528-1.68 1.79 1.79 0 0 0-1.424-.608 2.1 2.1 0 0 0-1.32.424 2.33 2.33 0 0 0-.792 1.144v5.552h-1.12v-8h1.12v.928a2.769 2.769 0 0 1 2.38-1.088 2.546 2.546 0 0 1 2.372 1.408 3.037 3.037 0 0 1 2.7-1.408 2.756 2.756 0 0 1 2.128.848 3.261 3.261 0 0 1 .784 2.3v5.012Zm6.88.16a3.923 3.923 0 0 1-2.972-1.192 4.134 4.134 0 0 1-1.14-2.968 4.079 4.079 0 0 1 1.168-2.96 3.974 3.974 0 0 1 2.972-1.2 3.618 3.618 0 0 1 2.692 1.088 4.034 4.034 0 0 1 1.072 2.96v.3h-6.752a2.849 2.849 0 0 0 .832 2.088 2.867 2.867 0 0 0 2.128.84 2.985 2.985 0 0 0 1.576-.376 3.2 3.2 0 0 0 1.064-1.124l.912.592a3.819 3.819 0 0 1-3.552 1.952Zm-2.864-4.96h5.492a2.68 2.68 0 0 0-.88-1.7 2.594 2.594 0 0 0-1.76-.624 2.918 2.918 0 0 0-1.848.632 2.673 2.673 0 0 0-1.004 1.692Zm8.4 4.8v-8h1.12v1.248a2.375 2.375 0 0 1 .9-.936 2.481 2.481 0 0 1 1.34-.392 2.9 2.9 0 0 1 .656.064l-.144 1.152a2.282 2.282 0 0 0-.688-.1 1.95 1.95 0 0 0-1.264.472 2.446 2.446 0 0 0-.8 1.272v5.22Zm11.632.192a5.034 5.034 0 0 1-2.448-.584 3.225 3.225 0 0 1-1.472-1.464l1.008-.72a3.246 3.246 0 0 0 2.928 1.616 2.564 2.564 0 0 0 1.64-.512 1.647 1.647 0 0 0 .648-1.36 2.175 2.175 0 0 0-1.644-2.068l-1.68-.64a4.45 4.45 0 0 1-1.92-1.216 2.878 2.878 0 0 1-.6-1.884 2.588 2.588 0 0 1 .984-2.112 3.816 3.816 0 0 1 2.488-.8 4.05 4.05 0 0 1 1.88.432 3.692 3.692 0 0 1 1.34 1.12l-.944.768a2.938 2.938 0 0 0-2.32-1.168 2.5 2.5 0 0 0-1.576.488 1.518 1.518 0 0 0-.632 1.256 1.666 1.666 0 0 0 .392 1.176 3.491 3.491 0 0 0 1.3.776l1.5.576a4.845 4.845 0 0 1 1.984 1.28 2.948 2.948 0 0 1 .656 1.984 2.769 2.769 0 0 1-.976 2.232 3.809 3.809 0 0 1-2.536.824Zm8.752-.032a3.923 3.923 0 0 1-2.976-1.192 4.134 4.134 0 0 1-1.136-2.968 4.079 4.079 0 0 1 1.168-2.96 3.974 3.974 0 0 1 2.976-1.2 3.618 3.618 0 0 1 2.688 1.088 4.034 4.034 0 0 1 1.072 2.96v.3h-6.752a2.859 2.859 0 0 0 2.96 2.928 2.985 2.985 0 0 0 1.576-.376 3.2 3.2 0 0 0 1.064-1.128l.912.592a3.819 3.819 0 0 1-3.552 1.956Zm-2.864-4.96h5.488a2.68 2.68 0 0 0-.88-1.7 2.594 2.594 0 0 0-1.76-.624 2.918 2.918 0 0 0-1.848.632 2.673 2.673 0 0 0-1 1.692Zm8.4 4.8v-8h1.12v1.248a2.375 2.375 0 0 1 .9-.936 2.481 2.481 0 0 1 1.344-.392 2.9 2.9 0 0 1 .656.064l-.148 1.152a2.282 2.282 0 0 0-.688-.1 1.95 1.95 0 0 0-1.264.472 2.446 2.446 0 0 0-.8 1.272v5.22Zm7.792 0-3.744-8h1.248l2.928 6.352 2.928-6.352h1.264l-3.744 8Zm6.38-10.08a.836.836 0 0 1-.616-.248.85.85 0 0 1 0-1.2.836.836 0 0 1 .616-.248.791.791 0 0 1 .592.248.87.87 0 0 1 0 1.2.791.791 0 0 1-.592.248Zm-.572 10.08v-8h1.12v8Zm7.056.16a4.013 4.013 0 0 1-2.992-1.208 4.058 4.058 0 0 1-1.184-2.952 4.058 4.058 0 0 1 1.184-2.952 4.013 4.013 0 0 1 2.992-1.208 4.2 4.2 0 0 1 2.168.56 4.019 4.019 0 0 1 1.5 1.536l-.976.56a2.934 2.934 0 0 0-1.08-1.184 2.986 2.986 0 0 0-1.608-.432 2.844 2.844 0 0 0-2.184.9 3.135 3.135 0 0 0-.844 2.22 3.135 3.135 0 0 0 .84 2.216 2.844 2.844 0 0 0 2.184.9 2.986 2.986 0 0 0 1.608-.432 2.934 2.934 0 0 0 1.08-1.184l.976.56a4.019 4.019 0 0 1-1.5 1.536 4.2 4.2 0 0 1-2.164.564Zm8.7 0a3.923 3.923 0 0 1-2.976-1.192 4.134 4.134 0 0 1-1.132-2.968 4.079 4.079 0 0 1 1.168-2.96 3.974 3.974 0 0 1 2.976-1.2 3.618 3.618 0 0 1 2.688 1.088 4.034 4.034 0 0 1 1.072 2.96v.3h-6.752a2.859 2.859 0 0 0 2.96 2.928 2.985 2.985 0 0 0 1.576-.376 3.2 3.2 0 0 0 1.064-1.128l.912.592a3.819 3.819 0 0 1-3.552 1.956Zm-2.86-4.96h5.488a2.68 2.68 0 0 0-.88-1.7 2.594 2.594 0 0 0-1.76-.624 2.918 2.918 0 0 0-1.848.632 2.673 2.673 0 0 0-1 1.692Z" fill="#a5a5a5"/></g></svg>