<svg xmlns="http://www.w3.org/2000/svg" width="320.813" height="60.846"><defs><clipPath id="a"><path data-name="Rectangle 1" fill="#fff" d="M0 0h320.813v60.846H0z"/></clipPath></defs><g data-name="Group 1" clip-path="url(#a)"><path data-name="Path 1" d="M215.461 32.427a8.855 8.855 0 0 0 2.512-6.558c-.057-5.692-4.537-9.516-11.145-9.516a16.984 16.984 0 0 0-13.286 6.174 20.427 20.427 0 0 0-4.7 13.283c.108 8.42 5.137 13.287 13.828 13.287 2.079 0 7.275-.217 11.591-2.4l.221-.112-.821-7.27-.437.221a18.538 18.538 0 0 1-8.42 1.912c-2.571 0-4.537-.767-5.683-2.242a5.78 5.78 0 0 1-.875-2.625c8.57.216 14.207-1.154 17.215-4.154m-16.4-3.116c.767-2.9 3.062-5.687 6.725-5.687 1.858 0 3.008.875 3.008 2.3a2.221 2.221 0 0 1-.658 1.642c-1.149 1.194-4.049 1.74-9.078 1.74Z" fill="#fff"/><path data-name="Path 2" d="M193.209 17.057h-12.518l-7.985 9.352c-.762.983-1.529 1.912-2.187 2.787l4.649-26.026-10.937 3.991-7.212 40.9-.054.379h10.226l1.746-9.783 2.571-2.571 5.083 12.352h12.518l-9.462-18.529Z" fill="#fff"/><path data-name="Path 3" d="M41.88 16.348a12.576 12.576 0 0 0-9.516 4.537l.437-3.883h-8.307l-7.708 43.843 10.333-3.771 1.638-9.128a13.183 13.183 0 0 0 5.633 1.146c11.37 0 17.986-10.6 17.878-20.828-.111-7.216-4.155-11.916-10.388-11.916m-7.923 25.311a5.7 5.7 0 0 1-3.829-1.312l1.042-6.4c.983-5.741 3.933-9.624 7.212-9.624 3.391 0 3.662 3.612 3.662 4.7.108 5.85-3.391 12.628-8.087 12.628" fill="#fff"/><path data-name="Path 4" d="m20.39 24.765 1.367-7.708h-6.012l.217-1.2c.275-1.587 1.312-5.191 5.083-5.191a9.315 9.315 0 0 1 1.8.162l1.429-8.041a22.393 22.393 0 0 0-3.5-.278 15.147 15.147 0 0 0-9.241 3.171 17 17 0 0 0-5.85 10.5l-.163.929H1.475L.108 24.761h4.046L0 48.492h10.274l4.158-23.728Z" fill="#fff"/><path data-name="Path 5" d="M133.946 30.01c.767-4.429.162-7.82-1.75-10.17-1.967-2.3-5.245-3.5-9.733-3.5a28.509 28.509 0 0 0-12.574 2.733l-.217.108.762 6.891.437-.221a19.449 19.449 0 0 1 8.749-2.3c2.021 0 3.387.437 4.1 1.258a2.808 2.808 0 0 1 .492 2.3l-.054.162c-11.483 0-18.807 4.375-20.174 12.028a8.655 8.655 0 0 0 1.642 6.941 8.8 8.8 0 0 0 6.941 2.9 13.751 13.751 0 0 0 9.349-3.5v2.841h8.808Zm-11.208 6.887a9.888 9.888 0 0 1-.437 1.533 6.176 6.176 0 0 1-5.3 3.333 3.1 3.1 0 0 1-2.35-.875 2.749 2.749 0 0 1-.437-2.35c.546-3.008 3.608-4.591 9.074-4.591Z" fill="#fff"/><path data-name="Path 6" d="m235.252 40.676-.329.054a17.977 17.977 0 0 1-2.458.108 2.02 2.02 0 0 1-2.3-1.687 2.24 2.24 0 0 1 0-.554 26.815 26.815 0 0 1 .437-3.825l1.917-10.17h5.575l1.312-7.491h-5.52l1.533-8.524-10.171 3.715-.874 4.813h-3.94l-1.308 7.491h3.879l-2.185 11.862a26.56 26.56 0 0 0-.55 5.8c.058 4.321 3.175 6.945 8.42 6.945a18.7 18.7 0 0 0 5.2-.658Z" fill="#fff"/><path data-name="Path 7" d="M253.622 29.248c-2.517-1.2-3.608-2.187-3.608-3.225 0-1.421 1.475-2.35 3.662-2.35a13.325 13.325 0 0 1 6.016 1.367l.325.162 1.308-7.491a18.936 18.936 0 0 0-7.433-1.254c-8.145 0-13.774 4.483-13.72 10.878.054 3.446 2.346 6.287 6.833 8.474 3.062 1.475 3.662 2.512 3.716 3.662 0 1.475-1.367 2.458-3.554 2.458a20.642 20.642 0 0 1-7.925-2.075l-.329-.167-1.312 7.6a19.069 19.069 0 0 0 8.854 1.967c8.912 0 14.378-4.262 14.274-11.145 0-4.708-3.775-7.22-7.108-8.862" fill="#fff"/><path data-name="Path 8" d="M100.869 19.135a8.251 8.251 0 0 0-6.616-2.733 13.062 13.062 0 0 0-6.287 1.529 17.325 17.325 0 0 0-4.371 3.441c-.983-3.116-3.883-4.974-7.712-4.974a13.091 13.091 0 0 0-9.949 4.429l.929-5.358-9.4 3.441-5.195 29.582h10l3.225-18.207a7.459 7.459 0 0 1 .767-2.3c.875-1.587 2.571-3.279 4.758-3.279a2.968 2.968 0 0 1 2.3.929c.821.983 1.037 2.787.654 5.2l-3.226 17.657h10l3.225-18.261a8.356 8.356 0 0 1 .767-2.35 5.575 5.575 0 0 1 4.7-3.171 3.014 3.014 0 0 1 2.354.929c.875 1.042 1.092 2.954.6 5.687l-3.005 17.112h10l3.236-18.37c.821-4.808.217-8.583-1.75-10.933" fill="#fff"/><path data-name="Path 9" d="M160.294 16.51a11.953 11.953 0 0 0-2.076-.11 11.485 11.485 0 0 0-9.237 5.683l1.146-6.558-9.515 3.448-5.194 29.527h10.22l2.792-15.853a10.183 10.183 0 0 1 .546-2.079 7.3 7.3 0 0 1 7.108-4.646 13.9 13.9 0 0 1 2.458.217l.329.054 1.7-9.62Z" fill="#fff"/><path data-name="Path 10" d="M280.57 48.108a41.925 41.925 0 0 1 1.912-1.367c.492-.383 1.587-1.2 1.587-1.2 22.14-16.891 26.407-29.465 29.74-45.485-9.949 24.984-24.986 32.308-33.023 37.666a21.585 21.585 0 0 1-4.1-21.761 21.152 21.152 0 0 1 12.029-12.192 24.51 24.51 0 0 0-17.6 15.253 25.018 25.018 0 0 0 9.4 29.2c0-.112 0-.112.054-.112" fill="#41b7e9"/><path data-name="Path 11" d="M319.821 32.093a21.854 21.854 0 0 1-19.569 13.886c5.469-8.037 17.99-22.307 13.886-45.977-1.308 19.678-7.6 30.123-22.632 44.772a275.15 275.15 0 0 1-5.8 5.466 5.627 5.627 0 0 0-.546.546 11.262 11.262 0 0 0 1.258.5c13.337 5.029 28.044-1.367 32.856-14.216a23.493 23.493 0 0 0 1.529-8.749 22.15 22.15 0 0 1-.983 3.775" fill="#fff"/></g></svg>