<svg xmlns="http://www.w3.org/2000/svg" width="221.885" height="42.083"><defs><clipPath id="a"><path data-name="Rectangle 1" fill="#132a4a" d="M0 0h221.885v42.083H0z"/></clipPath></defs><g data-name="Group 1" clip-path="url(#a)" fill="#132a4a"><path data-name="Path 1" d="M149.02 22.424a6.124 6.124 0 0 0 1.738-4.54c-.037-3.933-3.138-6.579-7.708-6.579a11.747 11.747 0 0 0-9.19 4.279 14.128 14.128 0 0 0-3.25 9.187c.075 5.824 3.553 9.19 9.564 9.19a18.843 18.843 0 0 0 8.017-1.663l.153-.078-.568-5.028-.3.153a12.821 12.821 0 0 1-5.824 1.323 4.749 4.749 0 0 1-3.931-1.55 4 4 0 0 1-.605-1.815c5.93.15 9.826-.8 11.907-2.876m-11.348-2.159a4.908 4.908 0 0 1 4.651-3.933c1.285 0 2.081.605 2.081 1.588a1.536 1.536 0 0 1-.455 1.135c-.793.833-2.798 1.21-6.277 1.21Z"/><path data-name="Path 2" d="M133.63 11.796h-8.659l-5.521 6.466c-.527.68-1.058 1.323-1.513 1.928l3.216-18-7.564 2.763-4.989 28.286-.037.262h7.072l1.207-6.77 1.778-1.778 3.518 8.544h8.656l-6.543-12.814Z"/><path data-name="Path 3" d="M28.966 11.307a8.7 8.7 0 0 0-6.585 3.138l.3-2.686h-5.74L11.61 42.083l7.146-2.608 1.132-6.314a9.118 9.118 0 0 0 3.9.792c7.864 0 12.44-7.334 12.365-14.405-.075-4.991-2.873-8.241-7.184-8.241m-5.488 17.506a3.946 3.946 0 0 1-2.648-.908l.72-4.423c.68-3.971 2.72-6.657 4.988-6.657 2.346 0 2.533 2.5 2.533 3.253.075 4.046-2.346 8.734-5.593 8.734"/><path data-name="Path 4" d="m14.1 17.128.945-5.331H10.89l.15-.833c.19-1.1.908-3.591 3.516-3.591a6.443 6.443 0 0 1 1.248.112l.984-5.558a15.488 15.488 0 0 0-2.42-.193 10.476 10.476 0 0 0-6.392 2.2 11.76 11.76 0 0 0-4.046 7.259l-.112.643H1.02l-.945 5.289h2.8L0 33.534h7.106l2.876-16.406Z"/><path data-name="Path 5" d="M92.642 20.756c.53-3.063.112-5.409-1.21-7.034-1.36-1.588-3.628-2.421-6.731-2.421a19.718 19.718 0 0 0-8.7 1.89l-.15.075.527 4.766.3-.153a13.451 13.451 0 0 1 6.051-1.588 3.676 3.676 0 0 1 2.836.87 1.942 1.942 0 0 1 .34 1.588l-.037.112c-7.942 0-13.008 3.026-13.953 8.319a5.986 5.986 0 0 0 1.135 4.8 6.084 6.084 0 0 0 4.8 2.006 9.511 9.511 0 0 0 6.466-2.421v1.965h6.092Zm-7.752 4.763a6.839 6.839 0 0 1-.3 1.06 4.272 4.272 0 0 1-3.668 2.305 2.143 2.143 0 0 1-1.632-.606 1.9 1.9 0 0 1-.3-1.625c.377-2.081 2.5-3.176 6.276-3.176Z"/><path data-name="Path 6" d="m162.708 28.132-.228.037a12.433 12.433 0 0 1-1.7.075 1.4 1.4 0 0 1-1.588-1.167 1.549 1.549 0 0 1 0-.383 18.546 18.546 0 0 1 .3-2.645l1.326-7.034h3.856l.908-5.181h-3.82l1.06-5.9-7.034 2.57-.604 3.333h-2.722l-.9 5.181h2.683l-1.513 8.2a18.37 18.37 0 0 0-.38 4.008c.04 2.988 2.2 4.8 5.824 4.8a12.93 12.93 0 0 0 3.586-.449Z"/><path data-name="Path 7" d="M175.414 20.227c-1.741-.83-2.5-1.513-2.5-2.23 0-.983 1.02-1.625 2.533-1.625a9.216 9.216 0 0 1 4.161.945l.225.112.9-5.181a13.1 13.1 0 0 0-5.127-.866c-5.634 0-9.527 3.1-9.489 7.524.037 2.383 1.622 4.348 4.726 5.861 2.118 1.02 2.533 1.738 2.57 2.533 0 1.02-.945 1.7-2.458 1.7a14.277 14.277 0 0 1-5.481-1.435l-.228-.115-.908 5.256a13.189 13.189 0 0 0 6.124 1.36c6.164 0 9.945-2.948 9.872-7.708 0-3.256-2.611-4.994-4.916-6.129"/><path data-name="Path 8" d="M69.764 13.235a5.707 5.707 0 0 0-4.576-1.89 9.034 9.034 0 0 0-4.348 1.058 11.982 11.982 0 0 0-3.023 2.383c-.68-2.155-2.686-3.441-5.334-3.441a9.054 9.054 0 0 0-6.878 3.06l.643-3.706-6.5 2.38-3.591 20.46h6.919l2.23-12.593a5.159 5.159 0 0 1 .53-1.588 4.016 4.016 0 0 1 3.284-2.272 2.053 2.053 0 0 1 1.588.643c.568.68.718 1.928.452 3.593l-2.23 12.212h6.919l2.23-12.63a5.779 5.779 0 0 1 .526-1.618 3.856 3.856 0 0 1 3.25-2.193 2.084 2.084 0 0 1 1.628.643c.605.72.755 2.043.415 3.933l-2.076 11.832h6.919l2.234-12.705c.568-3.325.15-5.936-1.21-7.561"/><path data-name="Path 9" d="M110.865 11.419a8.267 8.267 0 0 0-1.438-.075 7.943 7.943 0 0 0-6.388 3.931l.792-4.536-6.578 2.383-3.594 20.419h7.069l1.931-10.964a7.043 7.043 0 0 1 .377-1.438 5.05 5.05 0 0 1 4.923-3.213 9.611 9.611 0 0 1 1.7.15l.228.037 1.172-6.654Z"/><path data-name="Path 10" d="M194.051 33.274c.452-.34.87-.643 1.323-.945.34-.265 1.1-.833 1.1-.833 15.311-11.682 18.262-20.379 20.567-31.459-6.88 17.281-17.28 22.347-22.84 26.053a14.929 14.929 0 0 1-2.84-15.051 14.63 14.63 0 0 1 8.319-8.432 16.952 16.952 0 0 0-12.172 10.55 17.3 17.3 0 0 0 6.5 20.194c0-.078 0-.078.037-.078"/><path data-name="Path 11" d="M221.202 22.201a15.115 15.115 0 0 1-13.538 9.6c3.781-5.559 12.443-15.428 9.6-31.8-.9 13.61-5.253 20.834-15.653 30.966a209.862 209.862 0 0 1-4.008 3.781 3.893 3.893 0 0 0-.377.377 7.789 7.789 0 0 0 .87.343c9.224 3.478 19.4-.945 22.725-9.832a16.249 16.249 0 0 0 1.065-6.05 15.32 15.32 0 0 1-.68 2.611"/></g></svg>